<?xml version="1.0" encoding="utf-8"?>
<!-- Generator: Adobe Illustrator 27.5.0, SVG Export Plug-In . SVG Version: 6.00 Build 0)  -->
<svg version="1.1" xmlns="http://www.w3.org/2000/svg" xmlns:xlink="http://www.w3.org/1999/xlink" x="0px" y="0px"
	 viewBox="0 0 500 500" style="enable-background:new 0 0 500 500;" xml:space="preserve">
<g id="BACKGROUND">
</g>
<g id="OBJECTS">
	<g>
		<g>
			<path style="fill:#3C3B6E;" d="M352.027,202.018c-0.091-13.216-0.592-19.658-0.592-19.658s11.465,0.903,28.611-0.206
				c0.006,6.613,0.009,13.225-0.001,19.838C370.717,202.04,361.356,201.97,352.027,202.018z M353.729,185.044
				c0.479-0.49,0.795-0.479,1.296,0.008c-0.31-0.649-0.224-0.918,0.41-1.26c-0.715,0.1-0.943-0.078-1.073-0.78
				c-0.128,0.685-0.342,0.896-1.034,0.78c0.629,0.352,0.608,0.646,0.405,1.251l-0.001-0.007L353.729,185.044z M367.739,185.044
				c0.479-0.49,0.795-0.479,1.296,0.008c-0.31-0.649-0.224-0.918,0.41-1.26c-0.715,0.1-0.943-0.078-1.073-0.78
				c-0.128,0.685-0.342,0.896-1.034,0.78c0.629,0.352,0.608,0.646,0.405,1.251l-0.001-0.007L367.739,185.044z M378.346,185.043
				c-0.002-0.003-0.004-0.005-0.005-0.008c0,0.002,0.001,0.005,0.001,0.007c-0.206-0.588-0.23-0.922,0.408-1.225
				c-0.681,0.057-0.916-0.119-1.04-0.807c-0.121,0.687-0.344,0.896-1.033,0.781c0.591,0.358,0.676,0.625,0.369,1.263
				C377.548,184.558,377.866,184.556,378.346,185.043z M364.337,185.043c-0.002-0.003-0.004-0.005-0.005-0.008
				c0,0.002,0.001,0.005,0.001,0.007c-0.206-0.588-0.23-0.922,0.408-1.225c-0.681,0.057-0.916-0.119-1.04-0.807
				c-0.121,0.687-0.344,0.896-1.033,0.781c0.591,0.358,0.676,0.625,0.369,1.263C363.539,184.558,363.857,184.556,364.337,185.043z
				 M364.334,189.011l-0.003-0.009l-0.001,0.008c-0.199-0.586-0.23-0.921,0.411-1.225c-0.681,0.053-0.922-0.117-1.04-0.808
				c-0.132,0.703-0.357,0.882-1.073,0.783c0.637,0.345,0.714,0.611,0.41,1.262C363.543,188.525,363.853,188.525,364.334,189.011z
				 M378.343,189.011l-0.002-0.009l-0.001,0.008c-0.199-0.586-0.23-0.921,0.411-1.225c-0.681,0.053-0.921-0.117-1.04-0.808
				c-0.132,0.703-0.357,0.882-1.073,0.783c0.637,0.345,0.714,0.611,0.41,1.262C377.552,188.525,377.863,188.525,378.343,189.011z
				 M353.732,189.013c0.478-0.492,0.793-0.477,1.296,0.008c-0.315-0.651-0.223-0.915,0.409-1.261
				c-0.721,0.099-0.945-0.075-1.074-0.785c-0.12,0.721-0.369,0.846-1.045,0.805c0.664,0.312,0.603,0.642,0.419,1.229l-0.002-0.005
				L353.732,189.013z M367.741,189.013c0.478-0.492,0.793-0.477,1.296,0.008c-0.315-0.651-0.223-0.915,0.409-1.261
				c-0.721,0.099-0.945-0.075-1.074-0.785c-0.12,0.721-0.369,0.846-1.046,0.805c0.664,0.312,0.603,0.642,0.419,1.229l-0.002-0.005
				L367.741,189.013z M365.409,186.999c0.482-0.443,0.775-0.445,1.256-0.001c-0.2-0.484-0.227-0.921,0.416-1.201
				c-0.648,0.052-0.932-0.098-1.03-0.761c-0.15,0.634-0.391,0.845-1.047,0.735C365.62,186.1,365.616,186.501,365.409,186.999z
				 M374.735,186.996c0.499-0.411,0.792-0.473,1.306,0.042c-0.326-0.659-0.195-0.899,0.382-1.267
				c-0.692,0.106-0.926-0.092-1.047-0.78c-0.125,0.705-0.363,0.878-1.078,0.78c0.624,0.334,0.715,0.603,0.44,1.227
				c-0.005,0.004-0.009,0.008-0.014,0.012c0.004,0.001,0.007,0.002,0.011,0.002C374.735,187.007,374.735,187.002,374.735,186.996z
				 M360.726,186.996c0.499-0.411,0.792-0.473,1.306,0.042c-0.327-0.659-0.195-0.899,0.382-1.267
				c-0.692,0.106-0.926-0.092-1.046-0.78c-0.125,0.705-0.363,0.878-1.078,0.78c0.624,0.334,0.715,0.603,0.44,1.227
				c-0.005,0.004-0.009,0.008-0.014,0.012c0.004,0.001,0.007,0.002,0.011,0.002C360.726,187.007,360.726,187.002,360.726,186.996z
				 M371.348,186.995c0.002,0.005,0.004,0.01,0.006,0.015c0.004-0.009-0.002-0.01-0.009-0.013c-0.302-0.706-0.198-0.817,0.406-1.226
				c-0.688,0.107-0.922-0.097-1.046-0.778c-0.116,0.674-0.361,0.885-1.033,0.778c0.579,0.367,0.676,0.627,0.371,1.265
				C370.561,186.543,370.828,186.567,371.348,186.995z M357.339,186.995c0.002,0.005,0.004,0.01,0.006,0.015
				c0.004-0.009-0.002-0.01-0.009-0.013c-0.302-0.705-0.198-0.817,0.406-1.226c-0.688,0.107-0.922-0.097-1.046-0.778
				c-0.116,0.674-0.362,0.885-1.033,0.778c0.579,0.367,0.676,0.627,0.371,1.265C356.552,186.543,356.819,186.567,357.339,186.995z
				 M365.41,190.968c0.481-0.442,0.773-0.444,1.254-0.001c-0.198-0.481-0.226-0.92,0.416-1.2c-0.648,0.052-0.931-0.099-1.03-0.762
				c-0.149,0.63-0.41,0.84-1.049,0.735C365.628,190.072,365.614,190.465,365.41,190.968z M357.339,190.963
				c-0.022,0.022,0.025,0.014-0.003,0.002c-0.27-0.592-0.184-0.9,0.407-1.199c-0.003-0.008-0.007-0.017-0.01-0.025
				c-0.666,0.109-0.923-0.106-1.036-0.779c-0.114,0.677-0.361,0.888-1.033,0.779c0.583,0.361,0.679,0.63,0.37,1.266
				C356.545,190.508,356.822,190.541,357.339,190.963z M371.348,190.963c-0.022,0.022,0.025,0.014-0.003,0.002
				c-0.27-0.592-0.184-0.9,0.407-1.199c-0.003-0.008-0.006-0.017-0.01-0.025c-0.667,0.109-0.923-0.106-1.036-0.779
				c-0.114,0.677-0.361,0.888-1.033,0.779c0.583,0.361,0.679,0.63,0.37,1.266C370.554,190.508,370.831,190.541,371.348,190.963z
				 M374.735,190.963c0.496-0.403,0.792-0.475,1.306,0.043c-0.303-0.614-0.222-0.932,0.378-1.239
				c-0.685,0.054-0.921-0.111-1.042-0.804c-0.129,0.701-0.361,0.879-1.078,0.777c0.628,0.331,0.723,0.623,0.427,1.239
				c0.004,0,0.008,0,0.011,0C374.737,190.975,374.736,190.969,374.735,190.963z M360.725,190.963
				c0.475-0.39,0.799-0.479,1.281,0.025c-0.243-0.588-0.207-0.923,0.404-1.221c-0.685,0.054-0.921-0.111-1.042-0.804
				c-0.129,0.701-0.36,0.879-1.078,0.777c0.628,0.331,0.723,0.623,0.428,1.24c0.004,0,0.008,0,0.011,0
				C360.727,190.975,360.726,190.969,360.725,190.963z M357.34,194.93c-0.002,0.005-0.004,0.011-0.006,0.016
				c0.004,0.001,0.007,0.001,0.01,0.002c-0.306-0.695-0.216-0.833,0.402-1.238c-0.694,0.107-0.926-0.096-1.05-0.777
				c-0.122,0.669-0.359,0.885-1.032,0.777c0.57,0.347,0.682,0.635,0.376,1.241C356.597,194.485,356.789,194.506,357.34,194.93z
				 M371.35,194.93c-0.002,0.005-0.004,0.011-0.006,0.016c0.003,0.001,0.007,0.001,0.01,0.002c-0.306-0.695-0.216-0.833,0.402-1.238
				c-0.694,0.107-0.926-0.096-1.05-0.777c-0.122,0.669-0.358,0.885-1.032,0.777c0.584,0.361,0.677,0.631,0.368,1.266
				C370.607,194.45,370.796,194.521,371.35,194.93z M360.725,194.931c0.478-0.38,0.795-0.48,1.281,0.026
				c-0.262-0.67-0.201-0.851,0.408-1.246c-0.691,0.106-0.924-0.095-1.045-0.779c-0.118,0.675-0.364,0.888-1.036,0.779
				c0.574,0.35,0.67,0.63,0.387,1.239c0.004-0.001,0.008-0.001,0.011-0.001C360.729,194.942,360.727,194.936,360.725,194.931z
				 M366.663,194.935c-0.196-0.48-0.225-0.919,0.416-1.2c-0.649,0.053-0.93-0.101-1.029-0.762c-0.15,0.634-0.389,0.847-1.046,0.737
				c0.581,0.359,0.677,0.634,0.369,1.267C365.874,194.496,366.164,194.476,366.663,194.935z M374.734,194.931
				c0.478-0.38,0.795-0.48,1.281,0.026c-0.26-0.67-0.201-0.85,0.407-1.246c-0.691,0.106-0.924-0.095-1.045-0.779
				c-0.118,0.675-0.364,0.888-1.036,0.779c0.574,0.35,0.67,0.63,0.387,1.239c0.004-0.001,0.008-0.001,0.012-0.001
				C374.738,194.942,374.736,194.936,374.734,194.931z M365.007,197.68c-0.003,0.009-0.005,0.019-0.008,0.028
				c0.609,0.31,0.672,0.623,0.373,1.238c0.517-0.498,0.814-0.497,1.328-0.003c-0.296-0.612-0.233-0.926,0.374-1.235
				c-0.683,0.041-0.91-0.111-1.039-0.807C365.917,197.585,365.679,197.786,365.007,197.68z M374.727,198.896
				c0.009,0.006,0.018,0.012,0.028,0.018c0.479-0.481,0.793-0.445,1.285,0.03c-0.299-0.621-0.231-0.929,0.375-1.237
				c-0.681,0.051-0.921-0.113-1.039-0.809c-0.116,0.673-0.363,0.889-1.03,0.781C374.897,198.021,375.036,198.306,374.727,198.896z
				 M362.031,198.944c-0.294-0.616-0.232-0.926,0.376-1.236c-0.683,0.051-0.921-0.115-1.039-0.809
				c-0.117,0.668-0.361,0.892-1.031,0.781c0.555,0.341,0.688,0.626,0.382,1.219C361.24,198.462,361.524,198.452,362.031,198.944z
				 M357.737,197.708c-0.003-0.009-0.005-0.018-0.008-0.027c-0.665,0.11-0.917-0.113-1.032-0.779
				c-0.119,0.669-0.358,0.89-1.027,0.779c0.581,0.361,0.669,0.631,0.365,1.265c0.494-0.473,0.806-0.512,1.288-0.03
				C357.076,198.312,357.143,198.007,357.737,197.708z M370.043,198.945c0.493-0.474,0.81-0.512,1.289-0.028
				c-0.238-0.604-0.184-0.906,0.414-1.209c-0.682,0.048-0.914-0.118-1.039-0.805c-0.154,0.763-0.3,0.828-1.047,0.799
				C370.282,198.023,370.339,198.318,370.043,198.945z M371.966,199.665c0.638,0.34,0.723,0.62,0.411,1.265
				c0.519-0.496,0.814-0.498,1.329-0.001c-0.312-0.642-0.22-0.928,0.411-1.264c-0.686,0.097-0.953-0.066-1.063-0.738
				C372.89,199.591,372.667,199.766,371.966,199.665z M358.367,200.931c0.514-0.497,0.814-0.5,1.33-0.001
				c-0.314-0.648-0.222-0.923,0.411-1.264c-0.684,0.097-0.956-0.063-1.062-0.737c-0.163,0.661-0.391,0.837-1.09,0.737
				C358.595,200.006,358.677,200.288,358.367,200.931z M368.38,198.91c-0.149,0.655-0.375,0.867-1.084,0.756
				c0.657,0.346,0.707,0.592,0.435,1.247c0.505-0.492,0.794-0.469,1.304,0.015c-0.31-0.643-0.215-0.921,0.41-1.262
				C368.746,199.769,368.495,199.589,368.38,198.91z M353.713,200.884c0.01,0.005,0.02,0.009,0.03,0.014
				c0.478-0.48,0.79-0.442,1.283,0.029c-0.311-0.652-0.222-0.919,0.414-1.262c-0.718,0.1-0.951-0.073-1.076-0.782
				c-0.126,0.699-0.368,0.88-1.077,0.782C353.899,199.992,354.021,200.275,353.713,200.884z M377.71,198.884
				c-0.125,0.71-0.36,0.881-1.075,0.782c0.639,0.342,0.72,0.613,0.412,1.265c0.495-0.474,0.806-0.51,1.289-0.03
				c-0.254-0.638-0.172-0.899,0.452-1.234C378.066,199.765,377.845,199.593,377.71,198.884z M363.051,200.888
				c0.008,0.005,0.017,0.009,0.025,0.014c0.454-0.459,0.798-0.463,1.252-0.002c-0.257-0.633-0.174-0.901,0.452-1.235
				c-0.718,0.098-0.943-0.077-1.078-0.78c-0.125,0.707-0.359,0.88-1.075,0.78C363.239,199.988,363.357,200.28,363.051,200.888z
				 M359.697,196.96c-0.313-0.654-0.223-0.918,0.411-1.263c-0.685,0.099-0.957-0.068-1.063-0.742
				c-0.164,0.663-0.388,0.842-1.088,0.742c0.641,0.343,0.72,0.618,0.41,1.265C358.887,196.463,359.175,196.46,359.697,196.96z
				 M371.968,195.697c0.633,0.344,0.719,0.619,0.409,1.265c0.523-0.502,0.807-0.502,1.33-0.001c-0.317-0.649-0.226-0.922,0.41-1.264
				c-0.715,0.094-0.943-0.072-1.076-0.78C372.91,195.628,372.682,195.794,371.968,195.697z M378.335,196.931
				c0.008-0.007,0.016-0.014,0.024-0.021c-0.308-0.611-0.171-0.884,0.428-1.212c-0.718,0.1-0.948-0.078-1.076-0.781
				c-0.133,0.707-0.36,0.879-1.075,0.781c0.638,0.345,0.723,0.613,0.411,1.264C377.545,196.486,377.854,196.448,378.335,196.931z
				 M363.051,196.921c0.008,0.004,0.017,0.009,0.025,0.013c0.454-0.459,0.798-0.463,1.252-0.001
				c-0.248-0.636-0.176-0.899,0.449-1.235c-0.717,0.102-0.944-0.077-1.076-0.78c-0.128,0.706-0.356,0.881-1.074,0.78
				C363.241,196.02,363.355,196.313,363.051,196.921z M369.448,195.697c-0.717,0.098-0.946-0.076-1.076-0.78
				c-0.129,0.703-0.357,0.882-1.074,0.78c0.61,0.324,0.731,0.613,0.424,1.22c0.523-0.435,0.806-0.45,1.313,0.042
				C368.725,196.307,368.81,196.039,369.448,195.697z M353.333,195.697c-0.004,0.008-0.007,0.017-0.011,0.025
				c0.582,0.295,0.682,0.616,0.391,1.196c0.522-0.443,0.803-0.452,1.314,0.041c-0.313-0.653-0.222-0.918,0.411-1.262
				c-0.718,0.1-0.948-0.074-1.074-0.781C354.242,195.589,354.007,195.808,353.333,195.697z M369.035,192.99
				c-0.308-0.642-0.216-0.921,0.408-1.261c-0.718,0.1-0.939-0.081-1.071-0.781c-0.129,0.702-0.356,0.883-1.074,0.781
				c0.61,0.324,0.73,0.613,0.424,1.219C368.242,192.509,368.527,192.499,369.035,192.99z M374.117,191.729
				c-0.685,0.099-0.953-0.072-1.063-0.743c-0.147,0.639-0.382,0.854-1.043,0.743c0.584,0.358,0.678,0.629,0.366,1.264
				c0.523-0.501,0.808-0.5,1.33-0.002C373.391,192.343,373.481,192.07,374.117,191.729z M377.71,190.947
				c-0.127,0.704-0.358,0.882-1.073,0.782c0.641,0.342,0.717,0.613,0.411,1.263c0.497-0.474,0.805-0.51,1.289-0.03
				c-0.251-0.648-0.188-0.891,0.445-1.233C378.063,191.832,377.843,191.646,377.71,190.947z M358.366,192.994
				c0.52-0.5,0.809-0.504,1.33-0.004c-0.302-0.629-0.224-0.928,0.392-1.246c-0.654,0.058-0.944-0.089-1.056-0.794
				c-0.133,0.71-0.357,0.875-1.072,0.779C358.601,192.075,358.679,192.342,358.366,192.994z M363.038,192.992
				c0.494-0.475,0.81-0.51,1.289-0.029c-0.238-0.609-0.183-0.906,0.417-1.21c-0.689,0.053-0.913-0.113-1.045-0.805
				c-0.127,0.71-0.355,0.879-1.072,0.781C363.267,192.07,363.345,192.343,363.038,192.992z M353.714,192.94
				c0.007,0.008,0.014,0.017,0.021,0.025c0.48-0.482,0.795-0.452,1.29,0.024c-0.31-0.651-0.225-0.919,0.412-1.261
				c-0.719,0.101-0.947-0.075-1.075-0.781c-0.132,0.702-0.358,0.883-1.074,0.781C353.894,192.053,354.023,192.336,353.714,192.94z
				 M358.366,185.055c0.518-0.494,0.813-0.499,1.329-0.002c-0.293-0.612-0.232-0.929,0.376-1.235
				c-0.685,0.052-0.914-0.11-1.04-0.808c-0.121,0.682-0.355,0.889-1.029,0.782C358.588,184.15,358.679,184.42,358.366,185.055z
				 M372.376,185.055c0.522-0.498,0.81-0.499,1.331-0.002c-0.302-0.62-0.232-0.927,0.373-1.236c-0.651,0.054-0.924-0.11-1.025-0.768
				c-0.158,0.631-0.376,0.85-1.042,0.742C372.594,184.152,372.686,184.421,372.376,185.055z M372.013,187.76
				c-0.002,0.01-0.004,0.019-0.005,0.029c0.608,0.307,0.669,0.621,0.368,1.235c0.52-0.498,0.81-0.5,1.33-0.002
				c-0.299-0.62-0.232-0.927,0.374-1.236c-0.684,0.052-0.914-0.108-1.039-0.808C372.919,187.658,372.687,187.868,372.013,187.76z
				 M359.032,186.979c-0.124,0.677-0.356,0.889-1.029,0.781c0.582,0.358,0.676,0.631,0.363,1.264c0.522-0.497,0.81-0.5,1.33-0.001
				c-0.295-0.626-0.236-0.925,0.375-1.237C359.388,187.839,359.157,187.678,359.032,186.979z"/>
			<path style="fill:#B22335;" d="M407.527,216.76c-18.476-0.023-37.026-0.573-55.499-0.596c0.112,0.882-0.55,1.665-0.18,2.352
				c18.371-0.005,37.121,0.691,55.505,0.717C407.434,218.412,407.492,217.587,407.527,216.76z"/>
			<path style="fill:#B22335;" d="M407.473,210.993c-18.489-0.014-36.956-0.486-55.446-0.493v2.846
				c18.521-0.011,37.018,0.423,55.538,0.429C407.553,212.848,407.521,211.921,407.473,210.993z"/>
			<path style="fill:#B22335;" d="M406.999,204.835c-18.324,0.001-36.647-0.002-54.971,0.001v2.845
				c18.406-0.032,36.814-0.002,55.221-0.011C407.171,206.723,407.087,205.777,406.999,204.835z"/>
			<path style="fill:#FEFEFE;" d="M406.73,201.997c-18.235,0.007-36.475-0.012-54.703,0.021v2.818
				c18.324-0.003,36.647,0,54.971-0.001C406.909,203.885,406.818,202.938,406.73,201.997z"/>
			<path style="fill:#FEFEFE;" d="M407.565,213.775c-18.52-0.006-37.017-0.441-55.538-0.429v2.818
				c18.473,0.023,37.023,0.574,55.499,0.596C407.568,215.768,407.578,214.772,407.565,213.775z"/>
			<path style="fill:#FEFEFE;" d="M407.248,207.671c-18.407,0.009-36.815-0.021-55.221,0.011v2.818
				c18.49,0.007,36.956,0.478,55.446,0.493C407.416,209.884,407.339,208.776,407.248,207.671z"/>
			<path style="fill:#B22335;" d="M407.32,182.153c-9.091,0.001-18.183,0.002-27.274,0.002l0.004,2.838
				c9.013-0.003,18.026,0,27.038-0.001C407.167,184.048,407.244,183.101,407.32,182.153z"/>
			<path style="fill:#FEFEFE;" d="M406.487,196.329c-8.812,0-17.624,0-26.436,0c0,0.946,0,1.892,0,2.838c8.832,0,17.663,0,26.495,0
				C406.504,198.218,406.487,197.272,406.487,196.329z"/>
			<path style="fill:#B22335;" d="M406.537,193.493c-8.829,0-17.658,0.003-26.487-0.001c0,0.945,0,1.891,0.001,2.837
				c8.812,0,17.624,0,26.436,0C406.487,195.382,406.504,194.437,406.537,193.493z"/>
			<path style="fill:#B22335;" d="M406.863,187.822c-8.938-0.001-17.876,0.001-26.813-0.001c0,0.947,0,1.893,0,2.84
				c8.873,0,17.747,0,26.62,0C406.728,189.715,406.791,188.769,406.863,187.822z"/>
			<path style="fill:#FEFEFE;" d="M407.088,184.992c-9.013,0.001-18.026-0.002-27.038,0.001c0,0.943,0,1.886,0,2.829
				c8.938,0.002,17.875,0,26.813,0.001C406.936,186.88,407.009,185.936,407.088,184.992z"/>
			<path style="fill:#FEFEFE;" d="M406.671,190.662c-8.873,0-17.747,0-26.62,0c0,0.943,0,1.887-0.001,2.83
				c8.829,0.004,17.658,0.001,26.487,0.001C406.57,192.548,406.614,191.605,406.671,190.662z"/>
			<path style="fill:#B22335;" d="M406.721,201.895c-0.085-0.913-0.136-1.821-0.175-2.728c-8.832,0-17.663,0-26.495,0
				c-0.002,0.942-0.003,1.885-0.005,2.827c8.895,0.01,17.79,0.001,26.685,0.003C406.727,201.963,406.724,201.929,406.721,201.895z"
				/>
			<g>
				<path style="fill:#FEFEFE;" d="M365.007,197.68c0.672,0.106,0.909-0.096,1.028-0.779c0.128,0.697,0.356,0.847,1.039,0.807
					c-0.607,0.309-0.669,0.623-0.374,1.235c-0.514-0.495-0.812-0.495-1.328,0.003c0.299-0.615,0.236-0.928-0.373-1.238
					C365.002,197.699,365.005,197.689,365.007,197.68z"/>
				<path style="fill:#FEFEFE;" d="M374.727,198.896c0.309-0.591,0.169-0.876-0.381-1.216c0.667,0.108,0.914-0.109,1.03-0.781
					c0.118,0.696,0.358,0.859,1.039,0.809c-0.607,0.309-0.673,0.617-0.375,1.237c-0.492-0.475-0.806-0.511-1.285-0.03
					C374.746,198.908,374.737,198.902,374.727,198.896z"/>
				<path style="fill:#FEFEFE;" d="M362.031,198.944c-0.507-0.493-0.791-0.482-1.313-0.045c0.306-0.593,0.173-0.878-0.382-1.219
					c0.671,0.112,0.914-0.113,1.031-0.781c0.117,0.694,0.356,0.859,1.039,0.809C361.799,198.019,361.737,198.329,362.031,198.944z"
					/>
				<path style="fill:#FEFEFE;" d="M357.737,197.708c-0.594,0.3-0.661,0.605-0.415,1.208c-0.482-0.482-0.793-0.443-1.288,0.03
					c0.305-0.634,0.216-0.904-0.365-1.265c0.67,0.11,0.908-0.111,1.027-0.779c0.115,0.667,0.367,0.889,1.032,0.779
					C357.731,197.689,357.734,197.699,357.737,197.708z"/>
				<path style="fill:#FEFEFE;" d="M370.043,198.945c0.296-0.627,0.239-0.922-0.384-1.243c0.748,0.029,0.893-0.037,1.047-0.799
					c0.125,0.688,0.358,0.853,1.039,0.805c-0.598,0.303-0.651,0.605-0.414,1.209C370.853,198.432,370.536,198.471,370.043,198.945z"
					/>
				<path style="fill:#FEFEFE;" d="M374.738,194.932c0.272-0.611,0.169-0.872-0.397-1.222c0.672,0.109,0.917-0.104,1.036-0.779
					c0.122,0.684,0.355,0.885,1.045,0.779c-0.609,0.396-0.667,0.577-0.407,1.246c-0.487-0.506-0.803-0.405-1.281-0.026
					L374.738,194.932z"/>
				<path style="fill:#FEFEFE;" d="M366.663,194.935c-0.499-0.46-0.789-0.438-1.29,0.042c0.309-0.633,0.212-0.909-0.369-1.267
					c0.657,0.11,0.897-0.103,1.046-0.737c0.099,0.661,0.38,0.816,1.029,0.762c-0.566,0.291-0.7,0.609-0.401,1.184
					C366.673,194.925,366.668,194.93,366.663,194.935z"/>
				<path style="fill:#FEFEFE;" d="M360.729,194.932c0.272-0.611,0.169-0.872-0.397-1.222c0.672,0.109,0.917-0.104,1.036-0.779
					c0.122,0.684,0.355,0.885,1.045,0.779c-0.609,0.396-0.669,0.577-0.408,1.246c-0.486-0.506-0.803-0.405-1.281-0.026
					L360.729,194.932z"/>
				<path style="fill:#FEFEFE;" d="M371.35,194.93c-0.555-0.409-0.743-0.48-1.307,0.046c0.309-0.635,0.215-0.905-0.368-1.266
					c0.674,0.108,0.91-0.108,1.032-0.777c0.124,0.681,0.357,0.884,1.05,0.777c-0.611,0.405-0.709,0.527-0.411,1.222L371.35,194.93z"
					/>
				<path style="fill:#FEFEFE;" d="M357.341,194.93c-0.552-0.424-0.744-0.445-1.299,0.021c0.306-0.606,0.193-0.894-0.376-1.241
					c0.674,0.108,0.91-0.108,1.032-0.777c0.124,0.681,0.357,0.884,1.05,0.777c-0.611,0.405-0.709,0.527-0.411,1.222L357.341,194.93z
					"/>
				<path style="fill:#FEFEFE;" d="M360.729,190.965c0.276-0.623,0.184-0.891-0.44-1.225c0.718,0.102,0.949-0.076,1.078-0.777
					c0.121,0.694,0.357,0.857,1.042,0.804c-0.611,0.298-0.647,0.633-0.404,1.221c-0.482-0.505-0.806-0.415-1.281-0.025
					L360.729,190.965z"/>
				<path style="fill:#FEFEFE;" d="M374.738,190.965c0.276-0.623,0.184-0.891-0.44-1.225c0.718,0.102,0.949-0.076,1.078-0.777
					c0.121,0.693,0.357,0.857,1.042,0.804c-0.6,0.307-0.681,0.626-0.378,1.239c-0.514-0.519-0.81-0.446-1.306-0.043L374.738,190.965
					z"/>
				<path style="fill:#FEFEFE;" d="M371.348,190.963c-0.518-0.422-0.795-0.454-1.306,0.044c0.31-0.637,0.213-0.906-0.37-1.266
					c0.672,0.108,0.919-0.103,1.033-0.779c0.113,0.673,0.37,0.888,1.036,0.779c0.003,0.008,0.006,0.017,0.01,0.025
					c-0.592,0.299-0.676,0.607-0.407,1.199L371.348,190.963z"/>
				<path style="fill:#FEFEFE;" d="M357.339,190.963c-0.518-0.422-0.794-0.454-1.306,0.044c0.31-0.637,0.213-0.906-0.37-1.266
					c0.672,0.108,0.919-0.103,1.033-0.779c0.113,0.673,0.37,0.888,1.036,0.779c0.003,0.008,0.007,0.017,0.01,0.025
					c-0.592,0.299-0.676,0.607-0.407,1.199L357.339,190.963z"/>
				<path style="fill:#FEFEFE;" d="M366.664,190.967c-0.481-0.444-0.773-0.441-1.254,0.001c-0.005-0.005-0.01-0.011-0.016-0.016
					c0.305-0.587,0.159-0.876-0.393-1.211c0.639,0.105,0.9-0.106,1.049-0.735c0.099,0.663,0.382,0.813,1.03,0.762
					c-0.568,0.291-0.7,0.609-0.401,1.185C366.674,190.957,366.669,190.962,366.664,190.967z"/>
				<path style="fill:#FEFEFE;" d="M357.339,186.995c-0.52-0.428-0.787-0.452-1.304,0.042c0.305-0.639,0.207-0.899-0.371-1.265
					c0.672,0.108,0.917-0.104,1.033-0.778c0.123,0.681,0.358,0.885,1.046,0.778c-0.605,0.409-0.708,0.521-0.406,1.226
					L357.339,186.995z"/>
				<path style="fill:#FEFEFE;" d="M371.348,186.995c-0.52-0.428-0.787-0.452-1.304,0.042c0.305-0.639,0.207-0.899-0.371-1.265
					c0.672,0.108,0.917-0.104,1.033-0.778c0.123,0.681,0.358,0.885,1.046,0.778c-0.605,0.409-0.708,0.521-0.406,1.226
					L371.348,186.995z"/>
				<path style="fill:#FEFEFE;" d="M360.729,186.998c0.276-0.624,0.184-0.892-0.44-1.227c0.715,0.098,0.953-0.075,1.078-0.78
					c0.121,0.688,0.355,0.885,1.046,0.78c-0.577,0.368-0.708,0.608-0.382,1.267c-0.514-0.516-0.807-0.453-1.306-0.042
					L360.729,186.998z"/>
				<path style="fill:#FEFEFE;" d="M374.738,186.998c0.276-0.624,0.184-0.892-0.44-1.227c0.715,0.098,0.953-0.075,1.078-0.78
					c0.121,0.688,0.355,0.885,1.047,0.78c-0.577,0.368-0.708,0.608-0.382,1.267c-0.514-0.516-0.807-0.453-1.306-0.042
					L374.738,186.998z"/>
				<path style="fill:#FEFEFE;" d="M366.665,186.999c-0.482-0.444-0.775-0.442-1.256,0.001c-0.005-0.005-0.01-0.011-0.015-0.016
					c0.311-0.59,0.152-0.875-0.39-1.212c0.657,0.11,0.897-0.102,1.047-0.735c0.099,0.663,0.382,0.813,1.03,0.761
					c-0.569,0.29-0.701,0.61-0.401,1.186C366.675,186.988,366.67,186.993,366.665,186.999z"/>
				<path style="fill:#FEFEFE;" d="M371.966,199.665c0.701,0.1,0.924-0.075,1.088-0.738c0.11,0.673,0.377,0.835,1.063,0.738
					c-0.632,0.337-0.723,0.622-0.411,1.264c-0.516-0.497-0.81-0.495-1.329,0.001C372.689,200.285,372.603,200.005,371.966,199.665z"
					/>
				<path style="fill:#FEFEFE;" d="M358.367,200.931c0.31-0.643,0.228-0.925-0.411-1.265c0.699,0.101,0.926-0.076,1.09-0.737
					c0.107,0.674,0.379,0.833,1.062,0.737c-0.634,0.341-0.726,0.616-0.411,1.264C359.181,200.43,358.882,200.434,358.367,200.931z"
					/>
				<path style="fill:#FEFEFE;" d="M368.38,198.91c0.115,0.679,0.366,0.858,1.065,0.756c-0.626,0.34-0.72,0.619-0.41,1.262
					c-0.51-0.484-0.799-0.506-1.304-0.015c0.272-0.656,0.221-0.901-0.435-1.247C368.005,199.777,368.231,199.565,368.38,198.91z"/>
				<path style="fill:#FEFEFE;" d="M353.713,200.884c0.308-0.609,0.185-0.891-0.427-1.218c0.708,0.099,0.95-0.084,1.077-0.782
					c0.125,0.709,0.359,0.882,1.076,0.782c-0.637,0.342-0.724,0.61-0.414,1.262c-0.493-0.472-0.805-0.509-1.283-0.029
					C353.733,200.893,353.723,200.889,353.713,200.884z"/>
				<path style="fill:#FEFEFE;" d="M377.71,198.884c0.134,0.71,0.356,0.881,1.078,0.782c-0.625,0.335-0.705,0.597-0.452,1.234
					c-0.484-0.48-0.794-0.443-1.289,0.03c0.309-0.652,0.227-0.922-0.412-1.265C377.351,199.765,377.585,199.593,377.71,198.884z"/>
				<path style="fill:#FEFEFE;" d="M363.051,200.888c0.306-0.608,0.188-0.9-0.425-1.223c0.717,0.1,0.949-0.074,1.075-0.78
					c0.135,0.704,0.361,0.878,1.078,0.78c-0.626,0.334-0.709,0.602-0.452,1.235c-0.454-0.461-0.798-0.457-1.252,0.002
					C363.068,200.898,363.059,200.893,363.051,200.888z"/>
				<path style="fill:#FEFEFE;" d="M359.697,196.96c-0.522-0.501-0.81-0.497-1.329,0.002c0.31-0.647,0.231-0.922-0.41-1.265
					c0.7,0.101,0.924-0.079,1.088-0.742c0.106,0.674,0.378,0.84,1.063,0.742C359.473,196.043,359.384,196.307,359.697,196.96z"/>
				<path style="fill:#FEFEFE;" d="M371.968,195.697c0.714,0.097,0.941-0.07,1.073-0.78c0.133,0.708,0.361,0.874,1.076,0.78
					c-0.636,0.342-0.727,0.615-0.41,1.264c-0.523-0.501-0.807-0.5-1.33,0.001C372.687,196.316,372.601,196.041,371.968,195.697z"/>
				<path style="fill:#FEFEFE;" d="M378.335,196.931c-0.481-0.484-0.79-0.445-1.288,0.03c0.312-0.651,0.227-0.919-0.411-1.264
					c0.716,0.099,0.942-0.074,1.075-0.781c0.128,0.703,0.359,0.881,1.076,0.781c-0.599,0.328-0.736,0.601-0.428,1.212
					C378.351,196.917,378.343,196.924,378.335,196.931z"/>
				<path style="fill:#FEFEFE;" d="M363.051,196.921c0.305-0.607,0.19-0.901-0.423-1.223c0.718,0.101,0.946-0.075,1.074-0.78
					c0.131,0.703,0.359,0.882,1.076,0.78c-0.626,0.336-0.697,0.599-0.449,1.235c-0.454-0.462-0.798-0.457-1.252,0.001
					C363.067,196.929,363.059,196.925,363.051,196.921z"/>
				<path style="fill:#FEFEFE;" d="M369.448,195.697c-0.638,0.342-0.723,0.61-0.413,1.262c-0.508-0.492-0.79-0.477-1.313-0.042
					c0.308-0.607,0.185-0.896-0.424-1.22c0.717,0.102,0.945-0.078,1.074-0.78C368.502,195.622,368.732,195.795,369.448,195.697z"/>
				<path style="fill:#FEFEFE;" d="M353.333,195.697c0.674,0.111,0.909-0.108,1.03-0.781c0.127,0.708,0.356,0.881,1.074,0.781
					c-0.633,0.344-0.724,0.61-0.411,1.262c-0.51-0.493-0.792-0.483-1.314-0.041c0.292-0.581,0.191-0.901-0.391-1.196
					C353.326,195.714,353.33,195.706,353.333,195.697z"/>
				<path style="fill:#FEFEFE;" d="M369.035,192.99c-0.508-0.491-0.793-0.48-1.313-0.041c0.307-0.607,0.186-0.895-0.424-1.219
					c0.718,0.102,0.945-0.08,1.074-0.781c0.132,0.701,0.354,0.881,1.071,0.781C368.818,192.068,368.727,192.348,369.035,192.99z"/>
				<path style="fill:#FEFEFE;" d="M374.117,191.729c-0.637,0.341-0.726,0.614-0.41,1.262c-0.522-0.499-0.807-0.499-1.33,0.002
					c0.312-0.636,0.218-0.906-0.366-1.264c0.661,0.111,0.896-0.105,1.043-0.743C373.163,191.658,373.432,191.828,374.117,191.729z"
					/>
				<path style="fill:#FEFEFE;" d="M377.71,190.947c0.133,0.699,0.353,0.884,1.071,0.782c-0.634,0.342-0.696,0.585-0.445,1.233
					c-0.484-0.481-0.792-0.444-1.289,0.03c0.307-0.651,0.229-0.921-0.411-1.263C377.352,191.829,377.583,191.651,377.71,190.947z"/>
				<path style="fill:#FEFEFE;" d="M358.366,192.994c0.314-0.652,0.235-0.919-0.407-1.265c0.715,0.097,0.94-0.07,1.072-0.779
					c0.112,0.706,0.403,0.851,1.056,0.794c-0.616,0.319-0.694,0.618-0.392,1.246C359.175,192.49,358.886,192.495,358.366,192.994z"
					/>
				<path style="fill:#FEFEFE;" d="M363.038,192.992c0.307-0.649,0.229-0.922-0.41-1.263c0.717,0.099,0.945-0.072,1.072-0.781
					c0.131,0.692,0.356,0.857,1.045,0.805c-0.6,0.304-0.655,0.601-0.417,1.21C363.848,192.481,363.532,192.518,363.038,192.992z"/>
				<path style="fill:#FEFEFE;" d="M353.714,192.94c0.309-0.604,0.179-0.888-0.426-1.211c0.717,0.102,0.943-0.079,1.074-0.781
					c0.128,0.707,0.356,0.882,1.075,0.781c-0.638,0.341-0.721,0.61-0.412,1.261c-0.496-0.477-0.811-0.505-1.29-0.024
					C353.728,192.957,353.721,192.949,353.714,192.94z"/>
				<path style="fill:#FEFEFE;" d="M358.366,185.055c0.313-0.635,0.221-0.905-0.364-1.263c0.674,0.107,0.908-0.101,1.029-0.782
					c0.125,0.698,0.355,0.86,1.04,0.808c-0.608,0.306-0.669,0.623-0.376,1.235C359.179,184.555,358.884,184.561,358.366,185.055z"/>
				<path style="fill:#FEFEFE;" d="M372.376,185.055c0.31-0.635,0.218-0.903-0.363-1.264c0.667,0.108,0.883-0.111,1.042-0.742
					c0.101,0.659,0.374,0.822,1.025,0.768c-0.605,0.309-0.675,0.617-0.373,1.236C373.186,184.556,372.898,184.558,372.376,185.055z"
					/>
				<path style="fill:#FEFEFE;" d="M367.745,189.011c0.185-0.588,0.245-0.918-0.419-1.23c0.676,0.041,0.926-0.085,1.046-0.805
					c0.129,0.71,0.354,0.884,1.074,0.785c-0.632,0.345-0.724,0.61-0.409,1.261c-0.503-0.486-0.817-0.501-1.296-0.008
					L367.745,189.011z"/>
				<path style="fill:#FEFEFE;" d="M353.736,189.011c0.185-0.588,0.245-0.918-0.419-1.23c0.676,0.041,0.926-0.085,1.045-0.805
					c0.129,0.71,0.354,0.884,1.074,0.785c-0.632,0.345-0.724,0.61-0.409,1.261c-0.503-0.486-0.817-0.501-1.296-0.008
					L353.736,189.011z"/>
				<path style="fill:#FEFEFE;" d="M378.344,189.012c-0.482-0.487-0.791-0.486-1.296,0.011c0.304-0.651,0.227-0.917-0.41-1.262
					c0.716,0.1,0.941-0.08,1.073-0.783c0.118,0.691,0.359,0.861,1.04,0.808c-0.642,0.304-0.61,0.638-0.411,1.225L378.344,189.012z"
					/>
				<path style="fill:#FEFEFE;" d="M364.335,189.012c-0.482-0.487-0.792-0.486-1.296,0.011c0.304-0.651,0.227-0.917-0.41-1.262
					c0.716,0.1,0.941-0.08,1.073-0.783c0.118,0.691,0.359,0.861,1.04,0.808c-0.642,0.304-0.61,0.638-0.411,1.225L364.335,189.012z"
					/>
				<path style="fill:#FEFEFE;" d="M372.013,187.76c0.674,0.108,0.906-0.103,1.028-0.782c0.125,0.7,0.356,0.86,1.039,0.808
					c-0.607,0.309-0.673,0.616-0.374,1.236c-0.52-0.498-0.81-0.496-1.33,0.002c0.301-0.615,0.239-0.928-0.368-1.235
					C372.01,187.78,372.011,187.77,372.013,187.76z"/>
				<path style="fill:#FEFEFE;" d="M359.032,186.979c0.124,0.699,0.356,0.859,1.039,0.807c-0.611,0.313-0.669,0.611-0.375,1.237
					c-0.52-0.499-0.808-0.496-1.33,0.001c0.313-0.634,0.218-0.906-0.363-1.264C358.677,187.869,358.908,187.656,359.032,186.979z"/>
				<path style="fill:#FEFEFE;" d="M364.337,185.043c-0.481-0.488-0.798-0.485-1.299,0.011c0.307-0.638,0.221-0.905-0.369-1.263
					c0.689,0.115,0.912-0.095,1.033-0.781c0.123,0.689,0.359,0.863,1.04,0.807c-0.639,0.304-0.614,0.637-0.408,1.225
					L364.337,185.043z"/>
				<path style="fill:#FEFEFE;" d="M378.346,185.043c-0.481-0.488-0.798-0.485-1.299,0.011c0.306-0.638,0.222-0.905-0.369-1.263
					c0.689,0.115,0.912-0.095,1.033-0.781c0.123,0.689,0.359,0.863,1.04,0.807c-0.639,0.304-0.614,0.637-0.408,1.225
					L378.346,185.043z"/>
				<path style="fill:#FEFEFE;" d="M367.743,185.043c0.205-0.605,0.224-0.899-0.404-1.251c0.693,0.116,0.905-0.096,1.034-0.78
					c0.13,0.702,0.358,0.88,1.073,0.78c-0.635,0.342-0.719,0.611-0.41,1.26c-0.501-0.487-0.818-0.497-1.296-0.008L367.743,185.043z"
					/>
				<path style="fill:#FEFEFE;" d="M353.733,185.043c0.205-0.605,0.224-0.899-0.404-1.251c0.693,0.116,0.905-0.096,1.034-0.78
					c0.129,0.702,0.358,0.88,1.073,0.78c-0.635,0.342-0.719,0.611-0.41,1.26c-0.501-0.487-0.818-0.497-1.296-0.008L353.733,185.043z
					"/>
			</g>
		</g>
		<path d="M350.81,261.416L350.81,261.416c-0.607-0.001-1.098-0.493-1.098-1.1l0.075-78.56c0.001-0.607,0.493-1.098,1.1-1.098l0,0
			c0.607,0,1.098,0.493,1.098,1.1l-0.075,78.56C351.909,260.925,351.417,261.417,350.81,261.416z"/>
	</g>
	<g id="Layer_3">
		<text transform="matrix(1 0 0 1 97.7965 74.4235)" style="font-family:'ShadowsIntoLightTwo-Regular'; font-size:48px;">American cuisine</text>
	</g>
	<g>
		<polygon style="fill:#E2A54D;" points="383.823,234.954 385.806,238.973 390.241,239.617 387.032,242.745 387.789,247.161 
			383.823,245.076 379.857,247.161 380.614,242.745 377.406,239.617 381.84,238.973 		"/>
		<polygon style="fill:#E2A54D;" points="172.333,188.763 174.316,192.781 178.75,193.426 175.541,196.553 176.299,200.97 
			172.333,198.885 168.366,200.97 169.124,196.553 165.915,193.426 170.349,192.781 		"/>
		<polygon style="fill:#E2A54D;" points="256.402,108.083 257.507,116.234 265.141,117.532 257.784,119.342 256.022,126.437 
			254.883,118.997 247.859,118.076 255.118,116.217 		"/>
	</g>
	<g>
		<g>
			<polygon style="fill:#FCD97A;" points="196.37,411.744 201.601,404.068 288.419,422.334 291.088,428.12 285.981,440.933 
				198.221,416.364 			"/>
			<g>
				<path style="fill:#D69950;" d="M288.582,422.422c-0.885,1.815-1.787,3.621-2.7,5.422l-2.732,5.405
					c-0.112,0.222-0.358,0.331-0.59,0.278l-0.024-0.006c-7.223-1.641-14.447-3.279-21.648-5.009l-10.794-2.629l-10.775-2.702
					l-10.775-2.702l-10.754-2.79c-7.171-1.852-14.326-3.77-21.466-5.749c-0.107-0.03-0.17-0.141-0.14-0.248
					c0.029-0.103,0.133-0.165,0.236-0.143c7.243,1.562,14.471,3.184,21.682,4.872l10.82,2.521l10.799,2.608l10.798,2.609
					l10.78,2.682c7.181,1.811,14.34,3.713,21.5,5.613l-0.614,0.272l3.02-5.249c1.004-1.751,2.02-3.496,3.052-5.232
					c0.052-0.088,0.166-0.117,0.255-0.065C288.594,422.23,288.624,422.336,288.582,422.422z"/>
			</g>
			<g>
				<path style="fill:#D69950;" d="M284.859,439.4c-0.509-0.413-0.841-0.891-1.146-1.38c-0.29-0.494-0.515-1.013-0.693-1.549
					c-0.177-0.536-0.327-1.083-0.425-1.649c-0.096-0.566-0.164-1.144-0.117-1.764c0.009-0.122,0.116-0.214,0.238-0.204
					c0.055,0.004,0.103,0.028,0.14,0.064c0.441,0.438,0.768,0.919,1.066,1.41c0.297,0.492,0.541,1.003,0.759,1.525
					c0.216,0.522,0.386,1.061,0.491,1.625c0.089,0.569,0.151,1.149,0.037,1.794c-0.021,0.117-0.133,0.195-0.25,0.174
					C284.921,439.438,284.887,439.422,284.859,439.4z"/>
			</g>
		</g>
		<g>
			<g>
				<radialGradient id="SVGID_1_" cx="270.2027" cy="250.6105" r="81.7163" gradientUnits="userSpaceOnUse">
					<stop  offset="0.5744" style="stop-color:#181415"/>
					<stop  offset="0.7977" style="stop-color:#181415"/>
					<stop  offset="1" style="stop-color:#181415"/>
				</radialGradient>
				<path style="fill:url(#SVGID_1_);" d="M328.758,163.611c-1.439-8.117-30.89-12.488-58.647-12.488
					c-28.359,0-58.49,4.563-58.702,13.022c-0.001,0.009-0.001,0.018-0.002,0.027c0,0.021-0.003,0.042-0.003,0.063
					c0,0.272,0.032,0.539,0.092,0.803c0.638,5.053,4.839,36.56,13.128,60.392c1.133,3.257,2.222,6.346,3.263,9.3
					c7.349,20.85,12.203,34.625,13.68,53.337c0.375,4.75-2.004,13.826-4.523,23.436c-2.19,8.356-4.448,16.981-5.4,24.354
					c-0.087,0.373-0.134,0.75-0.134,1.13c0,3.691,4.148,7.065,11.679,9.5c7.204,2.33,16.765,3.612,26.921,3.612
					c10.156,0,19.717-1.283,26.921-3.612c7.12-2.302,11.213-5.443,11.639-8.898c0.161-0.19,0.247-0.441,0.217-0.708
					c-0.866-7.591-3.236-16.634-5.528-25.378c-2.519-9.609-4.898-18.686-4.523-23.436c1.477-18.711,6.332-32.485,13.68-53.335
					c1.041-2.955,2.13-6.044,3.263-9.302c8.992-25.852,13.173-60.736,13.214-61.086
					C329.028,164.065,328.932,163.804,328.758,163.611z M270.111,152.991c33.496,0,56.839,5.926,56.839,11.243
					c0,5.318-23.343,11.243-56.839,11.243c-32.441,0-55.358-5.558-56.769-10.739c-0.033-0.266-0.056-0.448-0.067-0.54
					C213.379,158.89,236.69,152.991,270.111,152.991z M270.111,348.23c-21.914,0-36.652-5.783-36.73-11.201
					c0.032-0.279,0.069-0.563,0.105-0.845c1.362-5.185,15.732-10.441,36.624-10.441c21.972,0,36.731,5.813,36.731,11.243
					C306.842,342.416,292.083,348.23,270.111,348.23z M314.016,224.816c-1.132,3.255-2.22,6.343-3.261,9.295
					c-7.397,20.988-12.284,34.854-13.78,53.809c-0.4,5.064,2.018,14.29,4.578,24.056c1.808,6.898,3.662,13.98,4.776,20.342
					c-1.964-1.829-5.105-3.476-9.297-4.831c-7.204-2.329-16.765-3.612-26.921-3.612c-10.156,0-19.717,1.283-26.921,3.612
					c-4.039,1.306-7.103,2.882-9.078,4.632c1.117-6.31,2.951-13.316,4.74-20.142c2.56-9.767,4.978-18.992,4.578-24.057
					c-1.497-18.956-6.383-32.822-13.781-53.811c-1.04-2.951-2.128-6.038-3.26-9.293c-7.123-20.478-11.209-46.707-12.59-56.638
					c7.683,5.982,32.615,9.169,56.312,9.169c23.912,0,49.083-3.245,56.518-9.333C325.272,177.814,321.18,204.219,314.016,224.816z"
					/>
				<path style="fill:#8E5B38;" d="M270.253,182.926c-25.651,0-46.445,4.861-46.445,10.857c0.131,0.437,0.284,0.948,0.452,1.515
					c3.153,5.279,22.541,9.342,45.993,9.342c25.646,0,46.436-4.859,46.445-10.853c0-0.001,0-0.002,0-0.004
					C316.697,187.786,295.903,182.926,270.253,182.926z"/>
				<g>
					<path style="fill:#EDC7AE;" d="M266.145,203.194c0,0,8.478,15.671,10.79,17.212c2.312,1.541,18.754,2.826,20.552,1.798
						c1.798-1.028,12.074-14.386,12.331-16.442c0.257-2.055-4.624-15.928-5.909-16.441c-1.285-0.514-19.781-3.34-22.35-2.312
						S265.631,200.882,266.145,203.194z"/>
					<g>
						<path style="fill:#FFFFFF;" d="M266.145,202.999c7.901-0.707,15.82-0.753,23.741-0.688c-0.072-0.004-0.169,0.011-0.236,0.043
							c4.971-4.015,9.329-8.904,14.104-13.176c0.176-0.173,0.477,0.088,0.309,0.287c-4.077,4.943-8.184,9.84-12.988,14.111
							c-0.49,0.456-1.144,0.627-1.806,0.558c-7.716,0.041-15.43-0.041-23.125-0.746C265.926,203.37,265.908,203.015,266.145,202.999
							z"/>
					</g>
					<g>
						<path style="fill:#E8BA9A;" d="M290.583,203.93c2.529,4.144,4.102,8.769,5.511,13.389c0.054,0.725,1.845,5.27,0.768,4.857
							c-2.689-4.964-4.804-10.24-6.182-15.712C290.681,205.994,289.73,203.554,290.583,203.93z"/>
					</g>
				</g>
				<g>
					<path style="fill:#B7825E;" d="M290.814,255.04c0,0-7.312,13.517-9.307,14.847c-1.994,1.329-16.176,2.438-17.727,1.551
						c-1.551-0.886-10.415-12.409-10.636-14.182c-0.222-1.773,3.989-13.738,5.097-14.182c1.108-0.443,17.062-2.881,19.278-1.994
						C279.735,241.966,291.257,253.046,290.814,255.04z"/>
					<g>
						<path style="fill:#E8BA9A;" d="M290.814,254.872c-6.815-0.61-13.645-0.649-20.478-0.594c0.062-0.003,0.146,0.01,0.203,0.037
							c-4.288-3.463-8.047-7.68-12.166-11.365c-0.152-0.149-0.412,0.076-0.267,0.247c3.517,4.264,7.059,8.487,11.203,12.172
							c0.422,0.393,0.987,0.541,1.558,0.482c6.656,0.036,13.309-0.035,19.947-0.643
							C291.003,255.192,291.018,254.886,290.814,254.872z"/>
					</g>
					<g>
						<path style="fill:#E8BA9A;" d="M269.735,255.674c-2.181,3.575-3.538,7.564-4.754,11.549c-0.047,0.625-1.591,4.546-0.663,4.189
							c2.319-4.281,4.144-8.832,5.332-13.553C269.65,257.455,270.47,255.351,269.735,255.674z"/>
					</g>
				</g>
				<g>
					<path style="fill:#B7825E;" d="M240.999,207.041c0,0-4.095,14.813-3.578,17.153c0.517,2.34,9.973,12.967,11.706,13.402
						c1.732,0.436,16.108-1.73,17.496-2.854c1.388-1.125,6.645-12.669,6.153-13.756c-0.492-1.087-10.305-13.9-12.517-14.797
						C258.047,205.293,242.061,205.296,240.999,207.041z"/>
					<g>
						<path style="fill:#E8BA9A;" d="M241.115,206.92c5.336,4.283,10.288,8.988,15.175,13.762c-0.042-0.045-0.112-0.094-0.172-0.114
							c5.491,0.474,11.124,0.039,16.647,0.236c0.213-0.002,0.245,0.34,0.021,0.363c-5.49,0.637-10.97,1.228-16.512,1.012
							c-0.577-0.009-1.086-0.294-1.457-0.732c-4.823-4.587-9.572-9.248-13.935-14.286
							C240.757,207.02,240.959,206.788,241.115,206.92z"/>
					</g>
					<g>
						<path style="fill:#E8BA9A;" d="M255.757,222.105c-0.904,4.089-2.691,7.905-4.576,11.621c-0.4,0.483-2.002,4.38-2.425,3.48
							c1.295-4.694,3.133-9.24,5.547-13.466C254.584,223.448,255.451,221.363,255.757,222.105z"/>
					</g>
				</g>
				<g>
					<path style="fill:#633C21;" d="M304.095,237.738c4.673-15.093,12.744-43.956,12.744-43.956
						c-0.046,0.001-0.095,0.002-0.142,0.004c-0.008,5.994-20.799,10.853-46.445,10.853c-23.452,0-42.84-4.063-45.993-9.342
						c4.753,16.001,23.703,81.916,25.035,96.46c0.851,5.958-5.521,35.35-6.371,40.513c-0.824,5.009,7.147,9.643,27.4,9.554
						c20.253,0.089,28.224-4.545,27.4-9.554c-0.849-5.163-7.221-34.556-6.372-40.514
						C292.201,285.798,299.422,252.831,304.095,237.738z"/>
					<path style="fill:#8E5B38;" d="M224.26,195.297c-0.168-0.567-0.321-1.077-0.452-1.515
						C223.808,194.296,223.964,194.802,224.26,195.297z"/>
				</g>
				<path style="fill:#D19C78;" d="M235.136,192.271c0,0.626-1.458,1.133-3.257,1.133c-1.799,0-3.257-0.507-3.257-1.133
					c0-0.626,1.458-1.133,3.257-1.133C233.678,191.139,235.136,191.646,235.136,192.271z"/>
				<path style="fill:#D19C78;" d="M239.171,189.439c0,0.469-1.094,0.85-2.443,0.85c-1.349,0-2.443-0.38-2.443-0.85
					c0-0.469,1.094-0.85,2.443-0.85C238.078,188.59,239.171,188.97,239.171,189.439z"/>
				<path style="fill:#D19C78;" d="M263.527,201.051c0,0.469-1.093,0.849-2.443,0.849c-1.349,0-2.443-0.38-2.443-0.849
					c0-0.469,1.094-0.85,2.443-0.85C262.433,200.201,263.527,200.581,263.527,201.051z"/>
				<g>
					<circle style="fill:#4F2F19;" cx="298.148" cy="229.512" r="1.558"/>
					<circle style="fill:#4F2F19;" cx="252.411" cy="272.559" r="1.558"/>
					<path style="fill:#4F2F19;" d="M281.864,229.795c0,0.86-0.697,1.558-1.558,1.558c-0.86,0-1.558-0.697-1.558-1.558
						c0-0.86,0.697-1.557,1.558-1.557C281.167,228.238,281.864,228.935,281.864,229.795z"/>
					<circle style="fill:#4F2F19;" cx="284.129" cy="236.592" r="1.558"/>
					<circle style="fill:#4F2F19;" cx="250.57" cy="263.921" r="1.558"/>
				</g>
			</g>
			<g>
				<g>
					<path style="fill:#C98B39;" d="M267.344,360.998c0,0-7.475,2.249-9.325,12.365s-1.139,29.401,86.8,28.08
						c87.939-1.321,87.755-14.833,88.93-21.256c1.48-8.092-4.403-21.035-22.975-22.679
						C385.434,355.263,267.344,360.998,267.344,360.998z"/>
					<g>
						<path style="fill:#CECB5D;" d="M254.382,361.163c4.523,1.122,3.404,4.944,0.13,7.587c-2.09,1.632-4.512,4.406-2.887,6.502
							c1.305,1.684,4.131,0.941,5.567-0.633s2.135-3.711,3.57-5.286c1.436-1.574,4.261-2.317,5.567-0.633
							c-1.816,1.443-3.743,3.055-4.281,5.311c-0.538,2.256,1.24,5.118,3.517,4.678c2.06-0.398,2.811-2.861,3.895-4.658
							c1.084-1.797,4.288-2.82,4.898-0.812c0.543,1.791-1.862,2.868-3.184,4.192c-1.916,1.919-1.33,5.664,1.08,6.906
							c2.411,1.242,5.8-0.454,6.251-3.128c0.321-1.904-0.327-4.505,1.438-5.289c1.393-0.619,2.952,0.86,3.133,2.374
							c0.181,1.514-0.49,2.98-0.89,4.451c-1.75,5.796,4.793,6.548,6.417,1.238c0.651-2.52,0.086-5.294,1.079-7.7
							c0.992-2.406,4.936-3.694,5.998-1.318c0.905,2.023-1.273,3.954-2.883,5.476c-1.611,1.523-2.426,4.865-0.279,5.415
							c2.027,0.52,4.785-2.331,5.752-0.476c0.447,0.858-0.243,1.831-0.633,2.717c-1.152,2.619,0.972,6.074,3.83,6.227
							c2.857,0.153,5.339-3.055,4.473-5.782c-0.781-2.46-3.667-4.708-2.459-6.99c1.411-2.518,5.385-1.192,7.183-3.191
							c0.905-1.005,0.486-3.098-0.866-3.089c1.861-4.65,8.393-1.542,5.955,2.836c-1.304,1.936-4.481,2.367-5.05,4.631
							c-0.481,1.911,1.521,3.714,3.488,3.811c1.968,0.097,3.789-0.951,5.479-1.964c-2.396,0.879-3.239,4.437-1.493,6.298
							c1.746,1.861,5.351,1.245,6.38-1.09c0.86-1.952,0.615-5.063,2.728-5.353c3-0.412,2.222,5.477,4.924,6.842
							c2.299,1.161,4.517-2.233,3.922-4.739c-0.596-2.506-2.547-4.542-3.052-7.068c-0.505-2.526,2.022-5.786,4.182-4.383
							c3.632,2.76-2.889,8.152-0.11,11.212c1.759,1.881,4.823,0.06,6.664-1.741c-1.005,1.943-2.04,4.043-1.754,6.211
							c0.286,2.168,2.551,4.191,4.577,3.366c2.747-1.118,2.602-6.021,5.515-6.578c3.965-0.757,4.77,7.568,8.781,7.113
							c2.474-0.281,2.999-3.897,1.717-6.032c-1.281-2.135-3.552-3.547-4.777-5.714c-1.225-2.168-0.48-5.793,2.008-5.878
							c2.4-0.082,4.378,3.246,6.564,2.251c1.721-0.783,1.623-3.607,3.326-4.431c2.141-1.035,3.953,2.427,2.961,4.588
							c-0.992,2.161-3.237,3.512-4.368,5.603c-1.132,2.092,0.118,5.67,2.42,5.072c1.569-0.408,2.035-2.337,2.698-3.817
							c1.977-3.368,5.056-2.208,3.64,1.543c-0.397,6.87,9.54,6.252,8.285-0.524c0.023,2.823,3.088,5.274,5.788,4.449
							c2.7-0.824,3.769-4.884,1.678-6.78c-1.479-1.341-3.799-1.359-5.333-2.637c-1.947-1.623-1.683-5.175,0.482-6.493
							c2.165-1.318,5.442,0.08,5.989,2.555c0.459,2.074-0.69,4.538,0.608,6.219c2.43,2.691,6.079-0.08,7.653-2.44
							c-2.23,2.742-0.45,7.622,3.022,8.284c3.472,0.662,6.923-3.22,5.858-6.591c-0.566-1.793-2.091-3.211-2.434-5.06
							c-0.816-4.627,5.603-6.864,7.837-2.728c-2.34-9.786,9.485-9.427,4.649-2.061c-1.026,1.322-2.385,2.525-2.686,4.171
							c-0.43,2.349,1.821,4.664,4.209,4.662c5.445-0.203,6.737-7.299,3.713-11.053c0.052-1.533,2.429-1.742,3.62-0.776
							c1.191,0.966,1.859,2.52,3.187,3.288c1.788,1.034,4.362,0.051,5.146-1.86c2.026-8.225-10.118-3.375-5.906-11.742
							c3.502-5.444-1.579-7.156-2.327-4.779c3.049-8.221-3.191-9.59-9.685-5.78c-6.502,3.153-13.941,3.585-21.158,3.963
							c-38.204,1.805-76.387,4.579-114.635,5.154c-5.308,0.228-12.368-0.513-14.383-6.261c-0.585-1.814-0.404-3.881-1.382-5.517
							c-1.304-2.18-4.637-2.659-6.583-1.088c-2.006,1.62-0.767,4.532-2.349,6.071c-1.852,1.802-4.8,0.307-6.44,3.191
							C252.561,357.407,252.405,360.053,254.382,361.163z"/>
						<g>
							<g>
								<path style="fill:#99962E;" d="M430.403,355.307c-0.258,4.932-6.688,3.772-9.232,1.272l1.081-0.647
									c1.454,14.135,2.719,5.743,8.305,11.197c1.635,3.451,3.277,5.256,6.96,6.107c-2.076,0.596-4.741-0.928-6.164-2.652
									c-1.066-1.294-1.402-2.862-2.792-3.63c-1.439-0.764-3.375-0.218-4.801-1.113c-2.886-2.286-2.352-6.489-2.861-9.739
									c0.369-1.963,2.342,0.598,3.23,0.882c1.951,1.383,5.554,1.123,5.965-1.671C430.101,355.133,430.389,355.122,430.403,355.307
									z"/>
							</g>
							<g>
								<path style="fill:#99962E;" d="M252.51,375.643c0.082-9.324,7.263-6.995,9.865-11.804c3.776-8.424,7.86-2.503,13.472-4.947
									c1.927-1.969,0.498,0.714-0.592,1.004c-2.93,1.622-6.999-0.955-9.537,1.4c-1.408,1.448-1.913,3.57-3.341,5.085
									c-2.499,2.339-6.559,2.194-8.251,5.571c-0.69,1.097-1.141,2.358-1.307,3.694
									C252.811,375.823,252.517,375.828,252.51,375.643z"/>
							</g>
							<g>
								<path style="fill:#99962E;" d="M264.137,378.34c-1.098-6.098,0.662-8.337,6.511-9.62c4.663-7.097,5.679-4.393,12.866-5.646
									c0.557-0.184,1.084-0.462,1.541-0.854c0.941,0.022-0.977,1.328-1.305,1.433c-3.12,1.613-7.71-0.113-9.904,3.106
									c-0.698,1.07-1.183,2.394-2.375,3.197c-2.96,1.328-5.958,0.629-6.668,4.727C264.458,375.113,264.733,379.019,264.137,378.34
									z"/>
							</g>
							<g>
								<path style="fill:#99962E;" d="M252.646,359.564c1.235-2.911,3.93-6.183,7.477-5.395c2.014,0.429,3.518,1.915,5.501,1.271
									c2.783-0.745,4.979-4.879,8.027-4.298c-2.99,1.083-4.56,4.432-7.589,5.603c-3.083,1.353-5.856-2.365-8.819-0.904
									C255.885,355.842,252.662,360.52,252.646,359.564z"/>
							</g>
							<g>
								<path style="fill:#99962E;" d="M287.286,365.153c-6.127,2.954-0.577,10.06-1.047,14.896c0.073,2.254-1.841,3.733-2.55,5.65
									c-0.107,0.446-0.097,0.92,0.125,1.33c-0.261,0.915-0.922-1.064-0.744-1.418c1.463-4.182,2.789-5.089,1.064-9.897
									c-0.99-2.93-1.969-6.67,0.259-9.329C284.547,365.766,287.666,364.125,287.286,365.153z"/>
							</g>
							<g>
								<path style="fill:#99962E;" d="M301.688,393.659c-4.096-2.597-1.546-8.003-1.202-11.727
									c0.131-2.628-1.165-5.406-0.834-8.115c0.373-4.256,3.506-8.254,7.664-9.368c0.193-0.05,0.299,0.237,0.11,0.317
									c-3.788,1.704-6.354,5.54-6.422,9.631c-0.003,2.571,1.145,5.017,0.932,7.629c-0.264,3.814-3.34,8.178-0.071,11.379
									C302.006,393.512,301.844,393.757,301.688,393.659z"/>
							</g>
							<g>
								<path style="fill:#99962E;" d="M320.359,365.418c-2.608,5.24,3.634,7.16,3.346,11.861c-0.207,3.577-3.42,6.942-6.403,8.188
									c3.421-3.724,7.605-8.269,2.713-12.89c-1.594-2.089-1.628-5.324,0.083-7.327
									C320.21,365.117,320.437,365.258,320.359,365.418z"/>
							</g>
							<g>
								<path style="fill:#99962E;" d="M332.878,390.54c2.538-6.908-7.563-11.102-5.782-18.075c0.845-3.876,5.253-6.041,5.765-9.947
									c0.808-2.143,2.844,2.061,3.574,2.696c2.872,3.543,4.439,7.406-0.194,10.334c-0.178,0.106-0.351-0.16-0.184-0.28
									c1.007-0.752,1.757-1.808,2.151-2.961c1.133-3.3-3.399-6.786-5.183-9.302l1.158-0.391c-0.286,3.924-3.956,6.052-5.381,9.379
									c-2.313,6.239,6.242,10.499,5.061,16.793C333.852,389.175,333.134,391.377,332.878,390.54z"/>
							</g>
							<g>
								<path style="fill:#99962E;" d="M344.13,393.846c-2.72-4.628,3.252-7.745,4.99-11.328c1.822-3.621-2.601-6.053-3.134-9.507
									c-0.853-3.863,0.953-8.199,4.468-10.108c0.559-0.333,1.234,0.347,0.909,0.899c-0.154,0.277-0.278,0.559-0.309,0.8
									c0.147,1.188,0.777,2.604,0.177,3.855c-1.408,4.793,1.323,7.895,4.992,10.258c-4.543-0.936-7.477-6.281-6.064-10.802
									c0.513-1.579-1.132-3.211,0.035-4.752l0.901,0.912c-3.187,1.838-4.665,6.129-3.387,9.563
									c3.179,5.329,5.281,8.033-0.331,12.941c-2.007,1.771-4.314,4.335-2.984,7.107
									C344.488,393.842,344.234,394.008,344.13,393.846z"/>
							</g>
							<g>
								<path style="fill:#99962E;" d="M365.163,361.933c1.493,6.289,10.663,5.813,12.405,12.076
									c1.465,5.208-4.399,7.749-7.04,11.117c-1.071,1.137-1.182,2.755-1.373,4.078c-0.586-0.468-0.342-1.704-0.241-2.424
									c0.917-4.919,8.458-6.918,7.248-12.356c-1.745-5.012-8.662-5.401-10.798-10.222
									C365.126,363.807,364.443,361.443,365.163,361.933z"/>
							</g>
							<g>
								<path style="fill:#99962E;" d="M376.69,361.953c4.133,2.575,8.661,7.417,6.483,12.657c-0.804,1.867-2.545,3.496-3.022,5.329
									c-0.833,3.826,4.053,8.44,0.579,11.909c-0.291,0.233-0.361-0.201-0.336-0.411c0.15-0.442,0.403,0.003,0.39,0.256
									l-0.324-0.112c2.222-3.146-1.077-6.446-1.66-9.61c-0.783-3.076,1.794-5.463,3.014-7.955
									c1.322-3.081-0.348-6.459-2.451-8.824C379.142,364.625,375.788,362.002,376.69,361.953z"/>
							</g>
							<g>
								<path style="fill:#99962E;" d="M384.5,359.267c-0.587,4.348,2.251,8.501,6.466,9.316c2.211,0.493,4.551-0.482,6.731,0.563
									c4.793,2.729,0.329,11.563-1.9,14.924c-0.117,0.162-0.383,0.007-0.287-0.175c1.342-2.618,2.286-5.402,2.723-8.257
									c1.491-7.003-2.884-5.045-7.572-5.633c-4.765-0.888-8.036-6.307-6.463-10.805
									C384.256,359.027,384.524,359.082,384.5,359.267z"/>
							</g>
							<g>
								<path style="fill:#99962E;" d="M393.003,360.525c8.17,1.685,15.714,7.719,11.489,16.656c-2.106,4.701,3.139,5.77,3.6,9.701
									c0.083,0.736-0.372,2.298-1.234,2.133c0.932-1.128,0.77-2.8-0.274-3.917c-9.381-6.8,3.115-12.224-5.908-19.881
									c-2.255-1.946-5.087-3.116-7.78-4.401C392.733,360.747,392.824,360.467,393.003,360.525z"/>
							</g>
							<g>
								<path style="fill:#99962E;" d="M402.83,356.491c0.966,2.507,3.888,2.803,6.079,3.731c5.781,2.483,6.964,9.55,6.837,15.137
									l-0.457-0.053c0.08-0.155,0.25-0.812,0.499-0.699c0.244,0.087-0.066,0.694-0.054,0.848c-0.677,1.252-1.23-5.517-1.66-6.021
									c-0.764-2.782-2.134-5.536-4.524-7.229c-2.361-1.654-6.623-2.143-7.025-5.654
									C402.512,356.376,402.777,356.318,402.83,356.491z"/>
							</g>
							<g>
								<path style="fill:#99962E;" d="M412.591,355.615c0.792,3.472,2.592,7.014,5.285,9.362c5.354,1.752,8.918,3.509,7.031,10.029
									c-0.877,2.522-2.821,4.872-2.266,7.664c-0.506,0.825-0.7-1.677-0.632-2.033c0.458-4.112,4.487-9.461-0.152-12.578
									c-1.183-0.766-3.409-0.848-4.815-1.914c-2.895-2.609-4.66-6.644-4.76-10.52C412.292,355.448,412.57,355.43,412.591,355.615z
									"/>
							</g>
						</g>
					</g>
					<path style="fill:#633C21;" d="M429.561,347.956c-0.326-3.445-1.158-8.289-4.226-10.288c-1.542-0.649-3.612-1.063-5.188-0.505
						c-1.843-1.641-3.82-3.2-5.287-4.875c-28.055-0.708-56.564,3.697-84.955,6.549c-6.867-13.436-24.776-5.421-33.224,2.236
						c-9.538,0.208-19.034-0.056-28.468-1.056c-1.412,0.061-2.969,0.007-4.211,0.77c-11.777,12.92-7.447,27.45,13.96,29.316
						c25.001,3.068,50.627,5.099,75.747,3.219C372.547,372.211,433.18,379.032,429.561,347.956z"/>
					<g>
						<g>
							<path style="fill:#472610;" d="M274.637,349.942c0.92-0.467,2.187,0.9,1.489,1.604
								C275.218,351.836,273.896,350.787,274.637,349.942z"/>
						</g>
						<g>
							<path style="fill:#472610;" d="M311.446,366.485c1.177-0.442,3.579,0.372,3.685,1.62
								C314.094,368.506,311.134,367.786,311.446,366.485z"/>
						</g>
						<g>
							<path style="fill:#472610;" d="M321.939,354.318c1.558-0.165,3.97,0.809,4.365,2.283
								C325.119,356.866,321.586,355.658,321.939,354.318z"/>
						</g>
						<g>
							<path style="fill:#472610;" d="M336.172,357.38c1.356,0.051,3.457,1.619,3.276,2.946
								C338.272,360.323,335.499,358.58,336.172,357.38z"/>
						</g>
						<g>
							<path style="fill:#472610;" d="M333.106,364.804c1.316-0.205,3.635,0.969,3.655,2.285
								C335.622,367.301,332.639,366.087,333.106,364.804z"/>
						</g>
						<g>
							<path style="fill:#472610;" d="M347.585,370.871c0.946-0.742,3.423-0.55,3.747,0.612
								C350.421,372.132,347.646,372.216,347.585,370.871z"/>
						</g>
						<g>
							<path style="fill:#472610;" d="M370.499,360.403c0.328-1.066,2.519-2.019,3.194-1.109
								C373.297,360.27,371.119,361.543,370.499,360.403z"/>
						</g>
						<g>
							<path style="fill:#472610;" d="M373.663,363.445c1.315-0.383,2.553-0.405,3.868-0.682c0.107-0.023,0.213,0.048,0.231,0.156
								c-0.434,1.69-3.2,2.336-4.215,0.813C373.477,363.625,373.539,363.475,373.663,363.445z"/>
						</g>
						<g>
							<path style="fill:#472610;" d="M382.718,355.657c0.669-0.909,3.064-1.139,3.45-0.062
								C385.472,356.398,382.963,356.94,382.718,355.657z"/>
						</g>
						<g>
							<path style="fill:#472610;" d="M392.788,348.172c0.329-1.066,2.521-2.016,3.195-1.105
								C395.586,348.042,393.407,349.313,392.788,348.172z"/>
						</g>
						<g>
							<path style="fill:#472610;" d="M392.858,367.153c0.423-0.942,2.653-1.079,2.754-0.029
								C395.045,367.947,393.054,368.36,392.858,367.153z"/>
						</g>
						<g>
							<path style="fill:#472610;" d="M405.038,365.522c0.431-0.939,2.662-1.055,2.753-0.005
								C407.218,366.335,405.223,366.731,405.038,365.522z"/>
						</g>
						<g>
							<path style="fill:#472610;" d="M417.868,359.141c0.276-1.112,2.39-2.301,3.21-1.484
								C420.746,358.68,418.624,360.218,417.868,359.141z"/>
						</g>
						<g>
							<path style="fill:#472610;" d="M406.34,351.949c0.099-1.019,2.178-1.711,2.494-0.719
								C408.553,352.169,406.825,353.041,406.34,351.949z"/>
						</g>
						<g>
							<path style="fill:#472610;" d="M410.437,355.044c0.942-1.046,3.513-1.755,4.519-0.804
								C414.255,355.161,410.915,356.313,410.437,355.044z"/>
						</g>
						<g>
							<path style="fill:#472610;" d="M416.192,344.499c0.797-0.9,3.268-1.158,3.796-0.074
								C419.209,345.228,416.495,345.811,416.192,344.499z"/>
						</g>
						<g>
							<path style="fill:#472610;" d="M423.738,350.186c0.808-0.629,2.74,0.407,2.236,1.318
								C425.098,351.945,423.278,351.288,423.738,350.186z"/>
						</g>
						<g>
							<path style="fill:#472610;" d="M294.176,359.716c0.551-0.869,2.25-0.28,1.976,0.656
								C295.524,361.083,293.93,360.791,294.176,359.716z"/>
						</g>
						<g>
							<path style="fill:#472610;" d="M261.737,353.071c1.212,0.217,2.798,2.165,2.203,3.242
								C262.861,356.121,260.778,353.99,261.737,353.071z"/>
						</g>
						<g>
							<path style="fill:#472610;" d="M267.904,352.679c1.249,0.367,2.783,2.435,2.191,3.582
								C268.995,355.964,266.91,353.599,267.904,352.679z"/>
						</g>
						<g>
							<path style="fill:#472610;" d="M268.211,359.746c1.228-0.084,3.24,1.422,2.924,2.611
								C270.042,362.433,267.504,360.87,268.211,359.746z"/>
						</g>
						<g>
							<path style="fill:#472610;" d="M283.008,361.856c1.185-0.419,3.571,0.439,3.653,1.689
								C285.617,363.926,282.671,363.151,283.008,361.856z"/>
						</g>
						<g>
							<path style="fill:#472610;" d="M286.663,349.24c0.388-1.023,2.638-1.731,3.166-0.751
								C289.321,349.436,287.21,350.422,286.663,349.24z"/>
						</g>
						<g>
							<path style="fill:#472610;" d="M293.796,352.952c0.669-0.909,3.064-1.139,3.45-0.062
								C296.55,353.693,294.041,354.235,293.796,352.952z"/>
						</g>
						<g>
							<path style="fill:#472610;" d="M305.356,349.578c0.697-0.76,2.34,0.085,1.927,0.982
								C306.537,351.151,304.952,350.621,305.356,349.578z"/>
						</g>
						<g>
							<path style="fill:#472610;" d="M304.673,368.236c0.818-0.633,2.417,0.439,1.889,1.297
								C305.72,369.987,304.135,369.243,304.673,368.236z"/>
						</g>
					</g>
					<g>
						<path style="fill:#FFFFFF;" d="M427.137,348.291c-0.013,5.175-4.326,10.407-9.788,9.817
							c-4.321-0.348-7.948-3.389-12.295-3.554c-3.273-0.042-5.883,2.25-8.898,3.17c-4.522,1.447-9.452,0.073-12.949-3.025
							c-9.534-10.424-13.718-4.885-25.271-4.282c-6.192-0.128-11.736-5.321-18.011-3.129c-4.068,1.438-7.347,4.747-11.688,5.487
							c-4.385,0.395-9.001-0.609-12.628,2.564c-3.758,2.723-6.812,6.944-11.605,7.839c-10.5,1.484-13.372-14.994-24.367-12.175
							c-2.867,0.214-5.585,0.029-8.003-1.669c-3.468-3.009-8.592-9.168-5.583-13.847c1.782-2.246,5.122-1.365,7.489-0.875
							c7.295,1.511,14.79,2.031,22.223,1.582c17.408-1.587,14.331-4.035,32.516,0.501
							C349.122,340.944,425.232,318.586,427.137,348.291z"/>
						<path style="fill:#E2A54D;" d="M250.196,349.387c0,0,14.877-4.734,37.868-8.115c22.991-3.381,68.636,22.991,68.636,22.991
							s27.387-19.948,47.673-24.005c20.286-4.057,34.149,1.69,34.149,1.69l-20.091-16.105l-150.991,3.933
							C267.44,329.777,253.915,339.92,250.196,349.387z"/>
						<path style="fill:#BC3E20;" d="M319.356,327.735c-0.256,10.236-15.199,18.166-33.375,17.711
							c-18.176-0.455-32.703-9.122-32.447-19.359c0.256-10.236,15.199-18.165,33.375-17.71
							C305.086,308.831,319.613,317.498,319.356,327.735z"/>
						<path style="fill:#DD654E;" d="M313.503,327.38c-0.184,7.361-12.445,13.025-27.386,12.651
							c-14.941-0.374-26.903-6.645-26.718-14.006c0.184-7.361,12.445-13.025,27.386-12.651
							C301.725,313.748,313.688,320.019,313.503,327.38z"/>
						<g>
							<g>
								<path style="fill:#BC3E20;" d="M272.607,317.482c0.921-0.099,4.462,2.561,3.92,3.477
									C275.436,320.717,272.292,318.833,272.607,317.482z"/>
							</g>
							<g>
								<path style="fill:#BC3E20;" d="M263.041,324.783c0.91-0.778,7.346-1.98,7.464-0.813
									C269.099,324.644,263.81,326.076,263.041,324.783z"/>
							</g>
							<g>
								<path style="fill:#BC3E20;" d="M276.139,328.197c-1.03,2.205-3.247,4.456-5.263,4.63
									C271.345,331.842,275.52,327.443,276.139,328.197z"/>
							</g>
							<g>
								<path style="fill:#BC3E20;" d="M283.884,330.241c0.181,1.105-1.6,5.746-2.424,5.232
									C281.541,334.115,282.728,330.06,283.884,330.241z"/>
							</g>
							<g>
								<path style="fill:#BC3E20;" d="M290.944,330.128c0.81,1.635,1.284,4.341,0.566,5.975
									C290.816,335.2,289.932,330.6,290.944,330.128z"/>
							</g>
							<g>
								<path style="fill:#BC3E20;" d="M298.87,328.395c1.024,0.126,5.143,3.781,4.569,4.717
									C302.199,332.556,298.584,329.885,298.87,328.395z"/>
							</g>
							<g>
								<path style="fill:#BC3E20;" d="M305.988,324.548c1.08-0.713,3.09-0.785,3.847,0.32
									C309.059,325.53,306.159,325.82,305.988,324.548z"/>
							</g>
							<g>
								<path style="fill:#BC3E20;" d="M300.87,317.538c-0.802,2.061-3.045,4.115-4.856,3.88
									C296.542,320.601,300.339,316.82,300.87,317.538z"/>
							</g>
							<g>
								<path style="fill:#BC3E20;" d="M289.797,316.676c0.044,1.446-0.826,3.616-1.971,3.9
									C287.687,319.468,288.794,316.276,289.797,316.676z"/>
							</g>
							<g>
								<path style="fill:#BC3E20;" d="M280.666,315.468c0.823,0.966,1.356,3.231,0.642,4.292
									C280.599,319.094,279.694,315.946,280.666,315.468z"/>
							</g>
						</g>
					</g>
					<g>
						
							<ellipse transform="matrix(0.9938 -0.111 0.111 0.9938 -33.7096 47.111)" style="fill:#BC3E20;" cx="406.073" cy="326.175" rx="32.552" ry="16.486"/>
						<path style="fill:#DD654E;" d="M432.644,323.019c0.727,6.507-10.589,13.112-25.276,14.753
							c-14.686,1.641-27.181-2.304-27.909-8.811c-0.727-6.507,10.589-13.112,25.276-14.753
							C419.422,312.568,431.917,316.512,432.644,323.019z"/>
						<g>
							<g>
								<path style="fill:#BC3E20;" d="M391.349,319.697c0.89-0.209,4.688,1.667,4.27,2.545
									C394.52,322.172,391.207,320.928,391.349,319.697z"/>
							</g>
							<g>
								<path style="fill:#BC3E20;" d="M382.876,327.388c0.796-0.805,6.954-2.713,7.214-1.701
									C388.795,326.466,383.789,328.425,382.876,327.388z"/>
							</g>
							<g>
								<path style="fill:#BC3E20;" d="M396.132,328.667c-0.738,2.078-2.632,4.353-4.586,4.772
									C391.884,332.51,395.432,328.085,396.132,328.667z"/>
							</g>
							<g>
								<path style="fill:#BC3E20;" d="M403.973,329.445c0.313,0.949-0.859,5.272-1.73,4.928
									C402.155,333.166,402.818,329.439,403.973,329.445z"/>
							</g>
							<g>
								<path style="fill:#BC3E20;" d="M410.877,328.415c0.996,1.333,1.793,3.654,1.291,5.188
									C411.377,332.899,409.943,328.965,410.877,328.415z"/>
							</g>
							<g>
								<path style="fill:#BC3E20;" d="M418.43,325.843c1.019-0.024,5.506,2.652,5.059,3.552
									C422.205,329.069,418.334,327.193,418.43,325.843z"/>
							</g>
							<g>
								<path style="fill:#BC3E20;" d="M424.931,321.517c0.97-0.771,2.931-1.099,3.809-0.226
									C428.061,321.977,425.255,322.615,424.931,321.517z"/>
							</g>
							<g>
								<path style="fill:#BC3E20;" d="M419.052,316.018c-0.532,1.921-2.477,4.026-4.28,4.057
									C415.188,319.286,418.442,315.456,419.052,316.018z"/>
							</g>
							<g>
								<path style="fill:#BC3E20;" d="M408.095,316.72c0.221,1.267-0.363,3.294-1.451,3.694
									C406.371,319.457,407.062,316.5,408.095,316.72z"/>
							</g>
							<g>
								<path style="fill:#BC3E20;" d="M398.998,316.859c0.926,0.742,1.727,2.666,1.159,3.695
									C399.379,320.062,398.105,317.409,398.998,316.859z"/>
							</g>
						</g>
					</g>
					<g>
						<ellipse style="fill:#BC3E20;" cx="349.234" cy="332.14" rx="32.72" ry="16.991"/>
						<ellipse style="fill:#DD654E;" cx="349.234" cy="331.949" rx="26.896" ry="12.218"/>
						<g>
							<g>
								<path style="fill:#BC3E20;" d="M335.249,323.82c0.913-0.112,4.497,2.244,3.982,3.095
									C338.14,326.718,334.969,325.064,335.249,323.82z"/>
							</g>
							<g>
								<path style="fill:#BC3E20;" d="M325.925,330.728c0.885-0.734,7.25-1.983,7.396-0.916
									C331.941,330.461,326.722,331.895,325.925,330.728z"/>
							</g>
							<g>
								<path style="fill:#BC3E20;" d="M339.025,333.555c-0.969,2.044-3.115,4.157-5.114,4.363
									C334.352,337.005,338.391,332.879,339.025,333.555z"/>
							</g>
							<g>
								<path style="fill:#BC3E20;" d="M346.771,335.25c0.207,1.008-1.447,5.301-2.278,4.849
									C344.539,338.853,345.618,335.111,346.771,335.25z"/>
							</g>
							<g>
								<path style="fill:#BC3E20;" d="M353.783,334.985c0.846,1.48,1.384,3.947,0.711,5.461
									C353.782,339.634,352.789,335.441,353.783,334.985z"/>
							</g>
							<g>
								<path style="fill:#BC3E20;" d="M361.615,333.215c1.02,0.092,5.204,3.346,4.658,4.217
									C365.026,336.951,361.368,334.587,361.615,333.215z"/>
							</g>
							<g>
								<path style="fill:#BC3E20;" d="M368.592,329.527c1.055-0.678,3.051-0.79,3.83,0.205
									C371.667,330.357,368.793,330.689,368.592,329.527z"/>
							</g>
							<g>
								<path style="fill:#BC3E20;" d="M363.333,323.223c-0.746,1.907-2.923,3.84-4.729,3.666
									C359.108,326.128,362.786,322.577,363.333,323.223z"/>
							</g>
							<g>
								<path style="fill:#BC3E20;" d="M352.309,322.687c0.08,1.323-0.73,3.332-1.861,3.618
									C350.281,325.293,351.302,322.344,352.309,322.687z"/>
							</g>
							<g>
								<path style="fill:#BC3E20;" d="M343.206,321.789c0.842,0.866,1.428,2.929,0.745,3.917
									C343.23,325.113,342.252,322.25,343.206,321.789z"/>
							</g>
						</g>
					</g>
					<g>
						<path style="fill:#772C3E;" d="M316.772,314.798l-0.94,1.567l-1.037,1.734c0,0,3.113,17.245,28.28,14.102
							c25.167-3.143,28.942-17.329,28.942-17.329l-1.263-0.289l-1.349-0.305c0,0-5.317,8.431-26.035,12.006
							C322.656,329.862,316.772,314.798,316.772,314.798z"/>
						<path style="fill:#F4EDDA;" d="M316.772,314.798l-0.94,1.567c1.729,4.451,7.892,14.563,27.661,12.095
							c17.225-2.151,24.43-9.471,27.261-13.876l-1.349-0.305c0,0-5.317,8.431-26.035,12.006
							C322.656,329.862,316.772,314.798,316.772,314.798z"/>
					</g>
					<g>
						<path style="fill:#772C3E;" d="M373.645,313.674l-0.802,1.642l-0.886,1.817c0,0,4.576,16.916,29.382,11.634
							c24.807-5.282,27.355-19.739,27.355-19.739l-1.283-0.18l-1.37-0.189c0,0-4.577,8.855-24.913,14.187
							C380.795,328.18,373.645,313.674,373.645,313.674z"/>
						<path style="fill:#F4EDDA;" d="M373.645,313.674l-0.802,1.642c2.103,4.287,9.108,13.835,28.594,9.687
							c16.978-3.615,23.531-11.524,25.975-16.155l-1.37-0.189c0,0-4.577,8.855-24.913,14.187
							C380.795,328.18,373.645,313.674,373.645,313.674z"/>
					</g>
					<g>
						<path style="fill:#772C3E;" d="M266.204,309.496l-1.105,1.455l-1.221,1.611c0,0,1.212,17.482,26.572,17.106
							s30.661-14.065,30.661-14.065l-1.224-0.426l-1.308-0.451c0,0-6.206,7.8-27.19,9.091
							C270.408,325.112,266.204,309.496,266.204,309.496z"/>
						<path style="fill:#F4EDDA;" d="M266.204,309.496l-1.105,1.455c1.233,4.613,6.255,15.338,26.175,15.043
							c17.357-0.257,25.318-6.747,28.613-10.817l-1.308-0.451c0,0-6.206,7.8-27.19,9.091
							C270.408,325.112,266.204,309.496,266.204,309.496z"/>
					</g>
					<g>
						<path style="fill:#E2A54D;" d="M349.486,321.73c-21.661,0.134-83.105,4.037-85.796-12.112
							c-2.692-16.15,26.916-51.141,77.048-52.151c50.132-1.009,83.399,18.064,87.815,46.767
							C431.917,326.104,370.077,321.602,349.486,321.73z"/>
						<g>
							<g>
								<path style="fill:#FCC881;" d="M409.949,288.305c1.822-0.474,6.098,2.791,5.194,4.503
									C413.402,293.18,408.483,289.989,409.949,288.305z"/>
							</g>
							<g>
								<path style="fill:#FCC881;" d="M300.176,269.947c0.918-1.385,2.607-1.763,4.161-1.572c0.464,0.127,1.939,0.197,1.733,1.009
									C305.083,270.915,300.62,272.163,300.176,269.947z"/>
							</g>
							<g>
								<path style="fill:#FCC881;" d="M308.924,279.563c2.021,0.326,5.63,5.095,4.45,6.788
									C311.577,286.196,306.976,280.706,308.924,279.563z"/>
							</g>
							<g>
								<path style="fill:#FCC881;" d="M324.512,275.071c1.192-1.764,7.091-3.343,8.352-1.625
									C331.942,275.066,324.936,277.326,324.512,275.071z"/>
							</g>
							<g>
								<path style="fill:#F9D5AA;" d="M322.396,266.319c0.302-1.946,4.939-5.06,6.439-3.727
									C328.56,264.389,323.542,268.273,322.396,266.319z"/>
							</g>
							<g>
								<path style="fill:#FCC881;" d="M345.216,263.568c1.703-1.359,7.422-1.238,8.223,0.797
									C351.983,265.641,345.156,265.905,345.216,263.568z"/>
							</g>
							<g>
								<path style="fill:#F9D5AA;" d="M349.921,276.855c0.369,2.396-2.348,8.234-4.713,8.465
									C344.604,283.491,347.903,275.707,349.921,276.855z"/>
							</g>
							<g>
								<path style="fill:#FCC881;" d="M334.962,282.923c0.859,1.565-2.055,5.901-3.519,4.862
									C330.894,286.102,333.115,281.704,334.962,282.923z"/>
							</g>
							<g>
								<path style="fill:#FCC881;" d="M357.844,282.585c1.701-0.97,5.056,2.188,3.753,3.187
									C359.913,286.266,356.617,284.355,357.844,282.585z"/>
							</g>
							<g>
								<path style="fill:#F9D5AA;" d="M362.079,272.022c0.838-1.607,5.932-2.034,6.215-0.18
									C367.211,273.3,362.318,274.267,362.079,272.022z"/>
							</g>
							<g>
								<path style="fill:#FCC881;" d="M364.006,261.15c0.541-1.483,2.03-2.176,3.512-2.252c0.458,0.035,1.895-0.12,1.801,0.706
									C368.713,261.281,364.811,263.213,364.006,261.15z"/>
							</g>
							<g>
								<path style="fill:#FCC881;" d="M381.156,269.001c1.69-0.863,6.449,1.292,5.971,3.189
									C385.439,272.897,380.204,271.066,381.156,269.001z"/>
							</g>
							<g>
								<path style="fill:#FCC881;" d="M380.902,281.907c2.591,0.095,5.92,5.762,4.084,7.479
									C383.803,288.695,379.316,282.743,380.902,281.907z"/>
							</g>
							<g>
								<path style="fill:#FCC881;" d="M372.915,286.047c1.802,0.729,3.641,5.947,1.968,7.016
									C373.202,292.315,370.743,286.743,372.915,286.047z"/>
							</g>
							<g>
								<path style="fill:#FCC881;" d="M281.062,282.271c-0.896,2.15-6.476,5.604-8.454,4.453
									C272.968,284.927,280.193,280.159,281.062,282.271z"/>
							</g>
							<g>
								<path style="fill:#F9D5AA;" d="M392.682,280.85c0.963-0.567,6.645,0.616,5.974,1.892c-1.895,1.569-5.411,1.09-6.261-1.414
									C392.331,281.117,392.466,280.893,392.682,280.85z"/>
							</g>
							<g>
								<path style="fill:#FCC881;" d="M401.307,273.417c1.084-1.583,6.333-2.081,6.906-0.192
									C407.074,274.675,401.513,275.691,401.307,273.417z"/>
							</g>
							<g>
								<path style="fill:#F9D5AA;" d="M411.132,283.516c1.717-1.716,7.458-0.553,7.484,1.845
									C417.189,285.905,410.865,285.434,411.132,283.516z"/>
							</g>
							<g>
								<path style="fill:#F9D5AA;" d="M292.386,279.899c0.039,2.591-3.345,8.499-5.849,8.713
									C286.06,286.77,290.558,278.483,292.386,279.899z"/>
							</g>
						</g>
					</g>
				</g>
				<g>
					<g>
						<path style="fill:#C98B39;" d="M271.24,308.04c3.975,2.099,8.035,3.974,12.442,4.991c0.572,0.783-3.052,0.272-3.534,0.228
							c-3.457-0.57-6.912-2.179-9.105-4.981C270.941,308.151,271.097,307.962,271.24,308.04z"/>
					</g>
					<g>
						<path style="fill:#C98B39;" d="M355.052,316.78c3.583,0.096,7.197,0.647,10.761,0.996c0.458,0.953-4.689,1.009-5.51,0.904
							C359.338,318.656,354.677,317.768,355.052,316.78z"/>
					</g>
					<g>
						<path style="fill:#C98B39;" d="M363.802,312.785c1.604-0.616,12.015-0.675,12.164,0.649
							C373.538,313.837,365.018,314.381,363.802,312.785z"/>
					</g>
					<g>
						<path style="fill:#C98B39;" d="M383.096,315.424c4.009-0.288,8.103-0.299,12.103-0.688c0.728,0.537-2.408,1.218-2.86,1.398
							c-3.042,0.717-6.363,0.824-9.292-0.405C382.901,315.67,382.937,315.436,383.096,315.424z"/>
					</g>
				</g>
			</g>
			<g>
				<g>
					<g>
						
							<radialGradient id="SVGID_00000007414281529478725980000002465117236603584389_" cx="90.0848" cy="263.4509" r="34.4547" gradientUnits="userSpaceOnUse">
							<stop  offset="0.5744" style="stop-color:#181415"/>
							<stop  offset="0.7977" style="stop-color:#181415"/>
							<stop  offset="1" style="stop-color:#181415"/>
						</radialGradient>
						<path style="fill:url(#SVGID_00000007414281529478725980000002465117236603584389_);" d="M121.942,285.061
							c-0.048,0-0.096-0.004-0.145-0.013c-0.181-0.033-18.308-3.322-36.5-9.312c-24.68-8.126-37.73-17.129-38.788-26.76
							c-0.351-3.195,0.252-5.275,1.844-6.358c4.139-2.816,14.017,2.394,27.688,9.605c16.711,8.814,37.508,19.784,56.963,21.199
							c0.447,0.033,0.783,0.421,0.751,0.868c-0.033,0.447-0.417,0.788-0.868,0.751c-19.794-1.439-40.757-12.497-57.602-21.382
							c-12.173-6.421-22.686-11.968-26.018-9.699c-1.034,0.704-1.419,2.332-1.144,4.839c2.367,21.536,73.246,34.522,73.962,34.651
							c0.441,0.079,0.734,0.501,0.655,0.942C122.669,284.785,122.327,285.061,121.942,285.061z"/>
					</g>
					<g>
						<polygon style="fill:#FCD97A;" points="164.318,313.356 163.211,234.001 179.82,232.525 178.343,375.363 167.558,374.549 
													"/>
						<polygon style="fill:#EDBD66;" points="178.364,311.866 183.364,232.661 200.037,232.466 187.578,374.768 176.888,373.126 
													"/>
						<path style="fill:#EDBD66;" d="M155.982,361.102l9.582,4.804l3.547-1.333l2.609-120.554l-2.119-3.066l-14.664-0.091
							C154.936,240.861,155.107,354.602,155.982,361.102z"/>
						<path style="fill:#D69950;" d="M149.923,339.192l8.612,2.215l2.707-1.476l-16.486-89.32l-2.215-1.969l-12.057,1.969
							C130.485,250.61,148.201,334.517,149.923,339.192z"/>
						<path style="fill:#E0AF5F;" d="M137.21,365.461l8.612,2.889l2.707-1.926l-16.486-116.527l-2.215-2.568l-12.057,2.568
							C117.771,249.898,135.488,359.362,137.21,365.461z"/>
						<path style="fill:#FCD97A;" d="M146.602,368.596l8.612,2.215l2.707-1.476l-16.486-89.32l-2.214-1.969l-12.057,1.969
							C127.163,280.014,144.879,363.921,146.602,368.596z"/>
						<path style="fill:#FCD97A;" d="M155.46,325.782l8.612,2.215l2.707-1.476l-16.486-89.32l-2.215-1.968l-12.057,1.968
							C136.021,237.2,153.737,321.107,155.46,325.782z"/>
						<path style="fill:#EDBD66;" d="M156.282,371.842l8.508,2.587l2.768-1.357l-12.583-89.953l-2.127-2.063l-12.131,1.442
							C140.717,282.498,154.765,367.097,156.282,371.842z"/>
						<path style="fill:#D69950;" d="M202.794,337.878l-8.308,3.17l-2.856-1.162l6.252-89.567c0.047-0.675,0.318-1.315,0.77-1.819
							l0.315-0.351c0.611-0.681,1.497-1.051,2.411-1.006l10.757,0.528C212.136,247.67,203.979,333.038,202.794,337.878z"/>
						<path style="fill:#E0AF5F;" d="M215.873,357.308l-8.408,3.315l-2.824-1.641l9.006-111.44l2.046-2.581l12.194,1.62
							C227.886,246.581,217.202,351.417,215.873,357.308z"/>
						<path style="fill:#FCD97A;" d="M211.989,367.459l-8.308,3.17l-2.856-1.162l6.325-90.608l1.979-2.205l12.202,0.599
							C221.331,277.252,213.174,362.62,211.989,367.459z"/>
						<path style="fill:#FCD97A;" d="M192.896,359.593l-8.308,3.17l-2.856-1.162l6.325-90.608l1.979-2.205l12.202,0.599
							C202.238,269.386,194.081,354.754,192.896,359.593z"/>
						<path style="fill:#EDBD66;" d="M201.268,371.94l-8.162,3.529l-2.904-1.037l2.375-90.798l1.881-2.289l12.216,0.067
							C206.675,281.412,202.242,367.054,201.268,371.94z"/>
						<path style="fill:#D69950;" d="M173.545,374.256l-0.369-111.466l14.764-3.322l2.214,1.476l-6.274,113.311
							C183.88,374.256,176.867,374.994,173.545,374.256z"/>
						<g>
							<path style="fill:#D69950;" d="M150.459,237.169c6.293,29.593,12.16,59.757,16.348,89.527
								c-6.324-27.485-11.245-55.849-15.835-83.848C151,242.298,149.61,236.042,150.459,237.169z"/>
						</g>
						<g>
							<g>
								<path style="fill:#B77B39;" d="M155.143,283.095c5.107,29.531,9.767,59.619,12.764,89.246
									c-5.221-27.445-9.009-55.713-12.478-83.605C155.478,288.194,154.34,281.937,155.143,283.095z"/>
							</g>
							<g>
								<path style="fill:#B77B39;" d="M190.323,260.954c-1.276,37.78-3.095,76.025-6.457,113.48
									c0.713-35.261,3.017-71.07,5.539-106.427C189.581,267.363,189.747,259.524,190.323,260.954z"/>
							</g>
							<g>
								<path style="fill:#B77B39;" d="M198.051,250.329c0.518,4.692,0.113,9.42-0.431,14.09c-0.215,0.642-0.403,5.366-1.127,4.634
									c-0.331-4.704-0.141-9.415,0.381-14.094C197.066,254.312,197.346,249.697,198.051,250.329z"/>
							</g>
							<g>
								<path style="fill:#B77B39;" d="M132.21,249.873c1.836,6.801,2.752,13.783,3.546,20.765
									c-0.068,0.913,1.143,7.658,0.207,7.066c-1.651-6.837-2.78-13.778-3.595-20.758
									C132.417,255.97,131.311,249.477,132.21,249.873z"/>
							</g>
						</g>
					</g>
					
						<radialGradient id="SVGID_00000132794045143455338860000007931799454310078871_" cx="173.2376" cy="331.5678" r="49.8079" gradientUnits="userSpaceOnUse">
						<stop  offset="0.5744" style="stop-color:#181415"/>
						<stop  offset="0.7977" style="stop-color:#181415"/>
						<stop  offset="1" style="stop-color:#181415"/>
					</radialGradient>
					<path style="fill:url(#SVGID_00000132794045143455338860000007931799454310078871_);" d="M224.972,286.29
						c-0.397-0.204-0.885-0.046-1.091,0.349c-0.02,0.038-2.047,3.793-9.9,7.115c-3.519,1.489-8.587,3.032-15.68,4.041
						c-0.049-0.009-0.098-0.015-0.149-0.015c-0.002,0-0.004,0-0.005,0c-0.128,0.001-0.247,0.034-0.354,0.087
						c-7.551,1.033-17.351,1.46-29.975,0.598c-43.059-2.942-44.985-13.282-45.014-13.479c-0.039-0.438-0.422-0.764-0.863-0.737
						c-0.447,0.03-0.785,0.417-0.755,0.865c0.004,0.057,0.019,0.196,0.071,0.401c-0.136,0.158-0.212,0.369-0.194,0.593l6.152,77.509
						c0.027,0.346,0.27,0.621,0.585,0.712c1.026,2.833,6.91,11.452,40.591,14.08c4.094,0.32,7.978,0.479,11.65,0.479
						c6.986,0,13.2-0.578,18.609-1.729c0,0,0,0,0,0c0.12-0.001,0.232-0.029,0.335-0.076c4.053-0.886,7.653-2.095,10.777-3.632
						c5.295-2.605,7.711-5.459,8.662-6.881c0.379-0.044,0.686-0.347,0.716-0.741l5.906-77.755c0.006-0.072-0.002-0.141-0.014-0.209
						c0.192-0.283,0.282-0.456,0.299-0.489C225.529,286.977,225.369,286.494,224.972,286.29z M219.167,344.003
						c-0.146,0.08-0.27,0.204-0.345,0.365c-0.018,0.037-1.838,3.782-8.891,7.094c-2.554,1.199-6.018,2.433-10.611,3.394
						l-0.126-19.853c5.067-0.903,9.501-2.209,13.217-3.912c4.211-1.93,6.723-3.997,8.156-5.516L219.167,344.003z M125.697,323.978
						c0.883,1.077,2.309,2.361,4.61,3.695c3.809,2.209,9.049,4.027,15.664,5.447c0.074,6.507,0.148,13.309,0.217,19.851
						c-17.351-4.165-18.322-10.135-18.34-10.278c-0.031-0.395-0.342-0.7-0.725-0.74L125.697,323.978z M169.909,334.54
						c-0.58-0.037-1.162-0.074-1.755-0.117c-8.424-0.612-15.166-1.545-20.57-2.64c-0.066-5.748-0.132-11.102-0.196-15.802
						c5.876,1.112,12.722,1.949,20.517,2.501c0.711,0.05,1.415,0.095,2.115,0.137C169.991,323.423,169.952,328.853,169.909,334.54z
						 M171.642,318.709c3.023,0.156,5.95,0.235,8.772,0.235c6.211,0,11.917-0.377,17.047-1.121l0.1,15.811
						c-6.584,1.06-15.104,1.595-26.026,1.001C171.579,328.845,171.616,323.45,171.642,318.709z M145.952,331.438
						c-18.996-4.172-20.053-10.344-20.072-10.49c-0.025-0.303-0.215-0.55-0.476-0.668l-1.122-14.132
						c0.882,1.13,2.384,2.52,4.946,3.968c3.995,2.259,9.524,4.11,16.531,5.544C145.822,320.41,145.887,325.792,145.952,331.438z
						 M147.603,333.457c5.824,1.154,12.644,2.018,20.433,2.584c0.624,0.045,1.244,0.086,1.86,0.125
						c-0.051,6.594-0.109,13.479-0.167,20.093c-0.452-0.031-0.901-0.06-1.361-0.095c-8.511-0.645-15.236-1.645-20.55-2.816
						C147.747,346.511,147.675,339.769,147.603,333.457z M171.522,336.261c3.005,0.162,5.913,0.243,8.715,0.243
						c6.345,0,12.15-0.413,17.334-1.228l0.126,19.901c-6.508,1.199-15.106,1.84-26.343,1.185
						C171.416,349.452,171.473,342.639,171.522,336.261z M220.791,322.624c-0.095,0.184-2.065,3.844-9.279,7.093
						c-2.894,1.303-6.904,2.646-12.329,3.637l-0.1-15.78c5.513-0.905,10.316-2.255,14.309-4.039c4.476-2,7.081-4.149,8.52-5.681
						L220.791,322.624z M214.866,295.142c4.237-1.825,6.853-3.774,8.412-5.264l-1.14,15.008c-0.042,0.05-0.081,0.104-0.111,0.166
						c-0.052,0.108-4.032,7.703-22.955,10.892l-0.105-16.603C205.131,298.438,210.472,297.035,214.866,295.142z M197.346,299.562
						l0.105,16.639c-6.702,0.994-15.161,1.442-25.8,0.883c0.045-8.55,0.051-14.708-0.001-16.769c3.111,0.154,6.124,0.232,9.03,0.232
						C186.716,300.547,192.291,300.216,197.346,299.562z M170.052,300.23c0.046,1.467,0.029,7.903-0.022,16.764
						c-0.662-0.04-1.331-0.084-2.01-0.132c-8.408-0.596-15.187-1.495-20.654-2.552c-0.119-8.605-0.229-14.744-0.316-16.614
						c5.954,1.057,12.847,1.856,20.659,2.389C168.496,300.138,169.276,300.185,170.052,300.23z M127.61,291.726
						c4.268,2.326,10.229,4.22,17.813,5.669c0.002,0.04,0.004,0.081,0.012,0.121c0.069,0.678,0.179,7.189,0.302,16.465
						c-19.944-4.17-21.067-10.44-21.089-10.595c-0.031-0.364-0.302-0.644-0.643-0.719l-1.149-14.475
						C123.804,289.236,125.286,290.459,127.61,291.726z M129.202,363.322c-0.022-0.289-0.194-0.529-0.434-0.655l-1.37-17.267
						c1.842,2.515,6.592,6.352,18.809,9.234c0.071,6.826,0.136,13.311,0.19,18.816C130.117,369.292,129.218,363.456,129.202,363.322
						z M148.023,373.847c-0.06-6.163-0.123-12.531-0.188-18.842c5.363,1.164,12.055,2.145,20.41,2.778
						c0.493,0.037,0.983,0.072,1.47,0.105c-0.061,6.896-0.121,13.438-0.174,18.977c-0.342-0.025-0.679-0.047-1.025-0.074
						C159.957,376.123,153.264,375.073,148.023,373.847z M171.164,376.973c0.059-6.21,0.119-12.625,0.176-18.983
						c3.091,0.181,6.059,0.271,8.903,0.271c6.476,0,12.304-0.47,17.466-1.403l0.119,18.778
						C191.37,376.95,182.691,377.683,171.164,376.973z M208.843,372.091c-2.308,1.117-5.383,2.263-9.395,3.192l-0.118-18.735
						c4.345-0.893,8.187-2.133,11.51-3.72c4.321-2.064,6.778-4.284,8.1-5.824l-1.353,17.814c-0.047,0.056-0.09,0.116-0.122,0.186
						C217.448,365.041,215.683,368.782,208.843,372.091z"/>
				</g>
				<g>
					<g>
						<path style="fill:#B77B39;" d="M199.058,289.488c0.998,0.551,0.779,2.775-0.352,2.707
							C197.876,291.535,197.772,289.487,199.058,289.488z"/>
					</g>
					<g>
						<path style="fill:#B77B39;" d="M126.918,260.935c0.994,0.581,1.095,3.08-0.069,3.247
							C125.979,263.469,125.558,261.14,126.918,260.935z"/>
					</g>
					<g>
						<path style="fill:#B77B39;" d="M128.932,252.561c1.002,1.082,1.395,3.911,0.225,4.778
							C128.258,256.43,127.486,252.954,128.932,252.561z"/>
					</g>
					<g>
						<path style="fill:#B77B39;" d="M150.089,270.999c1.111,1.002,1.8,3.792,0.73,4.806
							C149.827,274.975,148.688,271.554,150.089,270.999z"/>
					</g>
					<g>
						<path style="fill:#B77B39;" d="M159.649,247.157c0.975,0.675,1.094,3.236-0.086,3.502
							C158.704,249.873,158.255,247.398,159.649,247.157z"/>
					</g>
					<g>
						<path style="fill:#B77B39;" d="M164.846,246.932c0.724,1.769,0.644,4.764-0.75,5.981
							C163.38,251.729,163.326,247.105,164.846,246.932z"/>
					</g>
					<g>
						<path style="fill:#B77B39;" d="M164.364,280.639c0.83,1.205,0.762,3.844-0.534,4.481
							C163.085,284.138,162.895,280.744,164.364,280.639z"/>
					</g>
					<g>
						<path style="fill:#B77B39;" d="M182.08,273.248c0.878,1.425,1.01,4.234-0.268,5.251
							C181.008,277.471,180.597,273.486,182.08,273.248z"/>
					</g>
					<g>
						<path style="fill:#B77B39;" d="M187.247,238.053c0.949,1.291,1.203,4.035-0.023,5.013
							C186.373,242.057,185.77,238.413,187.247,238.053z"/>
					</g>
					<g>
						<path style="fill:#B77B39;" d="M203.98,257.5c0.929,0.736,0.876,3.297-0.318,3.479
							C202.856,260.14,202.574,257.647,203.98,257.5z"/>
					</g>
					<g>
						<path style="fill:#B77B39;" d="M217.759,268.819c0.929,0.736,0.876,3.297-0.318,3.479
							C216.635,271.459,216.354,268.965,217.759,268.819z"/>
					</g>
				</g>
			</g>
			<g>
				<path style="fill:#8C8676;" d="M175.362,361.048l-50.645,19.373l-50.645-19.373c1.392,54.978,44.088,57.718,50.27,57.826v0.001
					c0,0,0.133,0.003,0.375,0.003c0.242,0.001,0.375-0.003,0.375-0.003v-0.001C131.274,418.765,173.97,416.025,175.362,361.048z"/>
				<path style="fill:#756E5E;" d="M176.673,361.047c0,3.061-1.841,5.956-5.123,8.536c-8.276,6.505-25.714,10.982-45.895,10.982
					s-37.619-4.478-45.895-10.982c-3.282-2.58-5.123-5.475-5.123-8.536c0-10.777,22.838-19.514,51.018-19.514
					C153.834,341.533,176.673,350.269,176.673,361.047z"/>
				<path style="fill:#FFFFFF;" d="M171.55,369.583c-8.276,6.505-25.714,10.982-45.895,10.982s-37.619-4.478-45.895-10.982
					c4.46-9.828,23.314-17.211,45.895-17.211C148.236,352.372,167.09,359.754,171.55,369.583z"/>
				<g>
					<path style="fill:#A8A398;" d="M136,381.406c-3.572,0.263-7.288,0.384-11.11,0.349c-29.302-0.265-52.166-9.568-52.053-21.18
						c0.113-11.612,23.155-20.501,52.456-20.236c29.302,0.265,52.166,9.568,52.053,21.18
						C177.249,371.617,159.813,379.655,136,381.406 M125.092,342.723c-26.985,0-49.782,8.392-49.782,18.324
						c0,9.933,22.798,18.325,49.782,18.325c26.984,0,49.782-8.392,49.782-18.325C174.874,351.115,152.077,342.723,125.092,342.723z"
						/>
				</g>
				<path style="fill:#E8DDD6;" d="M95.831,372.493c0,0-20.258-7.324,4.127-14.647C99.957,357.846,86.077,365.17,95.831,372.493z"/>
				<path style="fill:#E8DDD6;" d="M124.717,357.075c0,0,35.264-0.385,37.139,7.323c1.876,7.709-13.505,10.022-13.505,10.022
					S173.111,360.544,124.717,357.075z"/>
				<path style="fill:#E8DDD6;" d="M110.975,362.982c0,0-7.798,7.901,12.122,6.097C123.097,369.079,107.395,369.016,110.975,362.982
					z"/>
			</g>
		</g>
		<g>
			<polygon style="fill:#D69950;" points="190.464,393.93 198.529,389.32 268.574,443.769 268.439,450.14 258.236,459.421 
				190.104,398.894 			"/>
			<g>
				<path style="fill:#FCD97A;" d="M268.682,443.92c-1.591,1.244-3.193,2.473-4.802,3.691l-4.823,3.662
					c-0.198,0.15-0.467,0.14-0.652-0.008l-0.02-0.016c-5.775-4.639-11.551-9.276-17.267-13.985l-8.552-7.091l-8.503-7.149
					l-8.503-7.149l-8.445-7.219c-5.635-4.806-11.227-9.665-16.779-14.571c-0.083-0.074-0.091-0.201-0.018-0.284
					c0.071-0.08,0.192-0.09,0.275-0.025c5.827,4.576,11.614,9.201,17.357,13.877l8.623,7.006l8.565,7.075l8.565,7.075l8.516,7.133
					c5.663,4.774,11.265,9.619,16.869,14.463l-0.671-0.024l5.014-3.396c1.67-1.134,3.347-2.258,5.035-3.367
					c0.086-0.056,0.201-0.033,0.257,0.053C268.776,443.753,268.757,443.861,268.682,443.92z"/>
			</g>
			<g>
				<path style="fill:#FCD97A;" d="M257.899,457.552c-0.277-0.594-0.366-1.17-0.426-1.743c-0.044-0.571-0.019-1.136,0.056-1.696
					c0.076-0.56,0.18-1.117,0.34-1.669c0.162-0.551,0.354-1.1,0.667-1.637c0.062-0.106,0.197-0.141,0.303-0.08
					c0.047,0.028,0.081,0.07,0.098,0.118c0.205,0.587,0.288,1.162,0.341,1.734c0.051,0.572,0.047,1.139,0.014,1.703
					c-0.034,0.564-0.117,1.123-0.271,1.675c-0.169,0.551-0.367,1.099-0.753,1.629c-0.07,0.096-0.205,0.117-0.301,0.047
					C257.937,457.613,257.914,457.583,257.899,457.552z"/>
			</g>
		</g>
	</g>
</g>
</svg>
